<?xml version="1.0" encoding="UTF-8" standalone="no"?>
<!DOCTYPE svg PUBLIC "-//W3C//DTD SVG 1.1//EN"
 "http://www.w3.org/Graphics/SVG/1.1/DTD/svg11.dtd">
<!-- Generated by graphviz version 2.50.0 (20211204.2007)
 -->
<!-- Pages: 1 -->
<svg width="1590pt" height="1214pt"
 viewBox="0.00 0.00 1589.80 1214.00" xmlns="http://www.w3.org/2000/svg" xmlns:xlink="http://www.w3.org/1999/xlink">
<g id="graph0" class="graph" transform="scale(1 1) rotate(0) translate(4 1210)">
<polygon fill="white" stroke="transparent" points="-4,4 -4,-1210 1585.8,-1210 1585.8,4 -4,4"/>
<!-- Node0x6000003f18e0 -->
<g id="node1" class="node">
<title>Node0x6000003f18e0</title>
<polygon fill="none" stroke="red" stroke-width="2" points="565.54,-1206 502.2,-1188 565.54,-1170 628.88,-1188 565.54,-1206"/>
<text text-anchor="middle" x="565.54" y="-1184.3" font-family="Times,serif" font-size="14.00">statement</text>
</g>
<!-- Node0x6000003f14a0 -->
<g id="node2" class="node">
<title>Node0x6000003f14a0</title>
<polygon fill="none" stroke="red" stroke-width="2" points="493.54,-1076 430.2,-1058 493.54,-1040 556.88,-1058 493.54,-1076"/>
<text text-anchor="middle" x="493.54" y="-1054.3" font-family="Times,serif" font-size="14.00">statement</text>
</g>
<!-- Node0x6000003f18e0&#45;&gt;Node0x6000003f14a0 -->
<g id="edge1" class="edge">
<title>Node0x6000003f18e0&#45;&gt;Node0x6000003f14a0</title>
<path fill="none" stroke="darkgrey" stroke-width="1.2" d="M557.28,-1172.32C545.79,-1151.88 524.72,-1114.43 509.96,-1088.19"/>
<polygon fill="darkgrey" stroke="darkgrey" stroke-width="1.2" points="514.65,-1085.11 501.93,-1073.91 504.89,-1090.6 514.65,-1085.11"/>
</g>
<!-- Node0x6000003f14e0 -->
<g id="node27" class="node">
<title>Node0x6000003f14e0</title>
<polygon fill="none" stroke="red" stroke-width="2" points="753.54,-1076 707.63,-1058 753.54,-1040 799.46,-1058 753.54,-1076"/>
<text text-anchor="middle" x="753.54" y="-1054.3" font-family="Times,serif" font-size="14.00">define</text>
</g>
<!-- Node0x6000003f18e0&#45;&gt;Node0x6000003f14e0 -->
<g id="edge26" class="edge">
<title>Node0x6000003f18e0&#45;&gt;Node0x6000003f14e0</title>
<path fill="none" stroke="darkgrey" stroke-width="1.2" d="M583.23,-1174.96C615.64,-1152.89 684.84,-1105.77 724.33,-1078.89"/>
<polygon fill="darkgrey" stroke="darkgrey" stroke-width="1.2" points="727.57,-1083.46 737.64,-1069.82 721.27,-1074.2 727.57,-1083.46"/>
</g>
<!-- Node0x6000003f11c0 -->
<g id="node3" class="node">
<title>Node0x6000003f11c0</title>
<polygon fill="none" stroke="red" stroke-width="2" points="392.54,-946 346.63,-928 392.54,-910 438.46,-928 392.54,-946"/>
<text text-anchor="middle" x="392.54" y="-924.3" font-family="Times,serif" font-size="14.00">define</text>
</g>
<!-- Node0x6000003f14a0&#45;&gt;Node0x6000003f11c0 -->
<g id="edge2" class="edge">
<title>Node0x6000003f14a0&#45;&gt;Node0x6000003f11c0</title>
<path fill="none" stroke="darkgrey" stroke-width="1.2" d="M482.35,-1042.81C465.63,-1021.63 433.87,-981.38 412.95,-954.87"/>
<polygon fill="darkgrey" stroke="darkgrey" stroke-width="1.2" points="417.18,-951.19 402.88,-942.1 408.39,-958.13 417.18,-951.19"/>
</g>
<!-- Node0x6000003f11a0 -->
<g id="node4" class="node">
<title>Node0x6000003f11a0</title>
<polygon fill="none" stroke="red" stroke-width="2" points="198.54,-816 141.57,-798 198.54,-780 255.52,-798 198.54,-816"/>
<text text-anchor="middle" x="198.54" y="-794.3" font-family="Times,serif" font-size="14.00">function</text>
</g>
<!-- Node0x6000003f11c0&#45;&gt;Node0x6000003f11a0 -->
<g id="edge3" class="edge">
<title>Node0x6000003f11c0&#45;&gt;Node0x6000003f11a0</title>
<path fill="none" stroke="darkgrey" stroke-width="1.2" d="M376.33,-916.31C344.08,-895.02 271.35,-847.04 229.59,-819.49"/>
<polygon fill="darkgrey" stroke="darkgrey" stroke-width="1.2" points="232.67,-814.81 216.23,-810.67 226.5,-824.16 232.67,-814.81"/>
</g>
<!-- Node0x6000003f1480 -->
<g id="node8" class="node">
<title>Node0x6000003f1480</title>
<polygon fill="none" stroke="red" stroke-width="2" points="392.54,-816 329.2,-798 392.54,-780 455.88,-798 392.54,-816"/>
<text text-anchor="middle" x="392.54" y="-794.3" font-family="Times,serif" font-size="14.00">statement</text>
</g>
<!-- Node0x6000003f11c0&#45;&gt;Node0x6000003f1480 -->
<g id="edge7" class="edge">
<title>Node0x6000003f11c0&#45;&gt;Node0x6000003f1480</title>
<path fill="none" stroke="darkgrey" stroke-width="1.2" d="M392.54,-909.74C392.54,-890.08 392.54,-857.49 392.54,-832.74"/>
<polygon fill="darkgrey" stroke="darkgrey" stroke-width="1.2" points="398.14,-832.4 392.54,-816.4 386.94,-832.4 398.14,-832.4"/>
</g>
<!-- Node0x6000003f11e0 -->
<g id="node5" class="node">
<title>Node0x6000003f11e0</title>
<polygon fill="none" stroke="blue" stroke-width="2" points="97.12,-660.54 97.12,-675.46 68.66,-686 28.42,-686 -0.04,-675.46 -0.04,-660.54 28.42,-650 68.66,-650 97.12,-660.54"/>
<text text-anchor="middle" x="48.54" y="-664.3" font-family="Times,serif" font-size="14.00">fucktorial</text>
</g>
<!-- Node0x6000003f11a0&#45;&gt;Node0x6000003f11e0 -->
<g id="edge4" class="edge">
<title>Node0x6000003f11a0&#45;&gt;Node0x6000003f11e0</title>
<path fill="none" stroke="darkgrey" stroke-width="1.2" d="M183.89,-784.49C160.17,-764.26 112.83,-723.86 80.91,-696.62"/>
<polygon fill="darkgrey" stroke="darkgrey" stroke-width="1.2" points="84.5,-692.33 68.7,-686.2 77.23,-700.85 84.5,-692.33"/>
</g>
<!-- Node0x6000003f1220 -->
<g id="node6" class="node">
<title>Node0x6000003f1220</title>
<polygon fill="none" stroke="red" stroke-width="2" points="198.54,-686 133.52,-668 198.54,-650 263.56,-668 198.54,-686"/>
<text text-anchor="middle" x="198.54" y="-664.3" font-family="Times,serif" font-size="14.00">parameter</text>
</g>
<!-- Node0x6000003f11a0&#45;&gt;Node0x6000003f1220 -->
<g id="edge5" class="edge">
<title>Node0x6000003f11a0&#45;&gt;Node0x6000003f1220</title>
<path fill="none" stroke="darkgrey" stroke-width="1.2" d="M198.54,-779.74C198.54,-760.08 198.54,-727.49 198.54,-702.74"/>
<polygon fill="darkgrey" stroke="darkgrey" stroke-width="1.2" points="204.14,-702.4 198.54,-686.4 192.94,-702.4 204.14,-702.4"/>
</g>
<!-- Node0x6000003f1200 -->
<g id="node7" class="node">
<title>Node0x6000003f1200</title>
<polygon fill="none" stroke="blue" stroke-width="2" points="225.54,-530.54 225.54,-545.46 209.72,-556 187.36,-556 171.54,-545.46 171.54,-530.54 187.36,-520 209.72,-520 225.54,-530.54"/>
<text text-anchor="middle" x="198.54" y="-534.3" font-family="Times,serif" font-size="14.00">x</text>
</g>
<!-- Node0x6000003f1220&#45;&gt;Node0x6000003f1200 -->
<g id="edge6" class="edge">
<title>Node0x6000003f1220&#45;&gt;Node0x6000003f1200</title>
<path fill="none" stroke="darkgrey" stroke-width="1.2" d="M198.54,-649.74C198.54,-630.08 198.54,-597.49 198.54,-572.74"/>
<polygon fill="darkgrey" stroke="darkgrey" stroke-width="1.2" points="204.14,-572.4 198.54,-556.4 192.94,-572.4 204.14,-572.4"/>
</g>
<!-- Node0x6000003f1340 -->
<g id="node9" class="node">
<title>Node0x6000003f1340</title>
<polygon fill="none" stroke="red" stroke-width="2" points="363.54,-686 300.2,-668 363.54,-650 426.88,-668 363.54,-686"/>
<text text-anchor="middle" x="363.54" y="-664.3" font-family="Times,serif" font-size="14.00">statement</text>
</g>
<!-- Node0x6000003f1480&#45;&gt;Node0x6000003f1340 -->
<g id="edge8" class="edge">
<title>Node0x6000003f1480&#45;&gt;Node0x6000003f1340</title>
<path fill="none" stroke="darkgrey" stroke-width="1.2" d="M388.87,-780.79C384.34,-760.78 376.52,-726.31 370.77,-700.92"/>
<polygon fill="darkgrey" stroke="darkgrey" stroke-width="1.2" points="376.18,-699.45 367.18,-685.08 365.26,-701.92 376.18,-699.45"/>
</g>
<!-- Node0x6000003f1460 -->
<g id="node18" class="node">
<title>Node0x6000003f1460</title>
<polygon fill="none" stroke="red" stroke-width="2" points="507.54,-686 462.46,-668 507.54,-650 552.62,-668 507.54,-686"/>
<text text-anchor="middle" x="507.54" y="-664.3" font-family="Times,serif" font-size="14.00">return</text>
</g>
<!-- Node0x6000003f1480&#45;&gt;Node0x6000003f1460 -->
<g id="edge17" class="edge">
<title>Node0x6000003f1480&#45;&gt;Node0x6000003f1460</title>
<path fill="none" stroke="darkgrey" stroke-width="1.2" d="M404.85,-783.3C423.98,-762.01 461.15,-720.63 485.13,-693.94"/>
<polygon fill="darkgrey" stroke="darkgrey" stroke-width="1.2" points="489.48,-697.48 496.01,-681.84 481.15,-690 489.48,-697.48"/>
</g>
<!-- Node0x6000003f12c0 -->
<g id="node10" class="node">
<title>Node0x6000003f12c0</title>
<polygon fill="none" stroke="red" stroke-width="2" points="296.54,-556 269.54,-538 296.54,-520 323.54,-538 296.54,-556"/>
<text text-anchor="middle" x="296.54" y="-534.3" font-family="Times,serif" font-size="14.00">if</text>
</g>
<!-- Node0x6000003f1340&#45;&gt;Node0x6000003f12c0 -->
<g id="edge9" class="edge">
<title>Node0x6000003f1340&#45;&gt;Node0x6000003f12c0</title>
<path fill="none" stroke="darkgrey" stroke-width="1.2" d="M355.72,-652.07C344.75,-631.1 324.58,-592.56 310.86,-566.36"/>
<polygon fill="darkgrey" stroke="darkgrey" stroke-width="1.2" points="315.68,-563.5 303.3,-551.92 305.76,-568.69 315.68,-563.5"/>
</g>
<!-- Node0x6000003f1280 -->
<g id="node11" class="node">
<title>Node0x6000003f1280</title>
<polygon fill="none" stroke="red" stroke-width="2" points="170.54,-426 140.38,-408 170.54,-390 200.71,-408 170.54,-426"/>
<text text-anchor="middle" x="170.54" y="-404.3" font-family="Times,serif" font-size="14.00">==</text>
</g>
<!-- Node0x6000003f12c0&#45;&gt;Node0x6000003f1280 -->
<g id="edge10" class="edge">
<title>Node0x6000003f12c0&#45;&gt;Node0x6000003f1280</title>
<path fill="none" stroke="darkgrey" stroke-width="1.2" d="M286.23,-526.53C265.93,-505.91 220.39,-459.64 192.89,-431.7"/>
<polygon fill="darkgrey" stroke="darkgrey" stroke-width="1.2" points="196.57,-427.46 181.35,-419.98 188.59,-435.31 196.57,-427.46"/>
</g>
<!-- Node0x6000003f12a0 -->
<g id="node14" class="node">
<title>Node0x6000003f12a0</title>
<polygon fill="none" stroke="red" stroke-width="2" points="296.54,-426 239.57,-408 296.54,-390 353.52,-408 296.54,-426"/>
<text text-anchor="middle" x="296.54" y="-404.3" font-family="Times,serif" font-size="14.00">decision</text>
</g>
<!-- Node0x6000003f12c0&#45;&gt;Node0x6000003f12a0 -->
<g id="edge13" class="edge">
<title>Node0x6000003f12c0&#45;&gt;Node0x6000003f12a0</title>
<path fill="none" stroke="darkgrey" stroke-width="1.2" d="M296.54,-519.74C296.54,-500.08 296.54,-467.49 296.54,-442.74"/>
<polygon fill="darkgrey" stroke="darkgrey" stroke-width="1.2" points="302.14,-442.4 296.54,-426.4 290.94,-442.4 302.14,-442.4"/>
</g>
<!-- Node0x6000003f1240 -->
<g id="node12" class="node">
<title>Node0x6000003f1240</title>
<polygon fill="none" stroke="blue" stroke-width="2" points="107.54,-270.54 107.54,-285.46 91.72,-296 69.36,-296 53.54,-285.46 53.54,-270.54 69.36,-260 91.72,-260 107.54,-270.54"/>
<text text-anchor="middle" x="80.54" y="-274.3" font-family="Times,serif" font-size="14.00">x</text>
</g>
<!-- Node0x6000003f1280&#45;&gt;Node0x6000003f1240 -->
<g id="edge11" class="edge">
<title>Node0x6000003f1280&#45;&gt;Node0x6000003f1240</title>
<path fill="none" stroke="darkgrey" stroke-width="1.2" d="M161.91,-394.73C148.19,-375.21 120.98,-336.52 101.82,-309.26"/>
<polygon fill="darkgrey" stroke="darkgrey" stroke-width="1.2" points="106.17,-305.72 92.39,-295.85 97.01,-312.16 106.17,-305.72"/>
</g>
<!-- Node0x6000003f1260 -->
<g id="node13" class="node">
<title>Node0x6000003f1260</title>
<ellipse fill="none" stroke="yellow" stroke-width="2" cx="170.54" cy="-278" rx="27" ry="18"/>
<text text-anchor="middle" x="170.54" y="-274.3" font-family="Times,serif" font-size="14.00">1</text>
</g>
<!-- Node0x6000003f1280&#45;&gt;Node0x6000003f1260 -->
<g id="edge12" class="edge">
<title>Node0x6000003f1280&#45;&gt;Node0x6000003f1260</title>
<path fill="none" stroke="darkgrey" stroke-width="1.2" d="M170.54,-389.74C170.54,-370.08 170.54,-337.49 170.54,-312.74"/>
<polygon fill="darkgrey" stroke="darkgrey" stroke-width="1.2" points="176.14,-312.4 170.54,-296.4 164.94,-312.4 176.14,-312.4"/>
</g>
<!-- Node0x6000003f1320 -->
<g id="node15" class="node">
<title>Node0x6000003f1320</title>
<polygon fill="none" stroke="red" stroke-width="2" points="296.54,-296 233.2,-278 296.54,-260 359.88,-278 296.54,-296"/>
<text text-anchor="middle" x="296.54" y="-274.3" font-family="Times,serif" font-size="14.00">statement</text>
</g>
<!-- Node0x6000003f12a0&#45;&gt;Node0x6000003f1320 -->
<g id="edge14" class="edge">
<title>Node0x6000003f12a0&#45;&gt;Node0x6000003f1320</title>
<path fill="none" stroke="darkgrey" stroke-width="1.2" d="M296.54,-389.74C296.54,-370.08 296.54,-337.49 296.54,-312.74"/>
<polygon fill="darkgrey" stroke="darkgrey" stroke-width="1.2" points="302.14,-312.4 296.54,-296.4 290.94,-312.4 302.14,-312.4"/>
</g>
<!-- Node0x6000003f1300 -->
<g id="node16" class="node">
<title>Node0x6000003f1300</title>
<polygon fill="none" stroke="red" stroke-width="2" points="296.54,-166 251.46,-148 296.54,-130 341.62,-148 296.54,-166"/>
<text text-anchor="middle" x="296.54" y="-144.3" font-family="Times,serif" font-size="14.00">return</text>
</g>
<!-- Node0x6000003f1320&#45;&gt;Node0x6000003f1300 -->
<g id="edge15" class="edge">
<title>Node0x6000003f1320&#45;&gt;Node0x6000003f1300</title>
<path fill="none" stroke="darkgrey" stroke-width="1.2" d="M296.54,-259.74C296.54,-240.08 296.54,-207.49 296.54,-182.74"/>
<polygon fill="darkgrey" stroke="darkgrey" stroke-width="1.2" points="302.14,-182.4 296.54,-166.4 290.94,-182.4 302.14,-182.4"/>
</g>
<!-- Node0x6000003f12e0 -->
<g id="node17" class="node">
<title>Node0x6000003f12e0</title>
<ellipse fill="none" stroke="yellow" stroke-width="2" cx="296.54" cy="-18" rx="27" ry="18"/>
<text text-anchor="middle" x="296.54" y="-14.3" font-family="Times,serif" font-size="14.00">1</text>
</g>
<!-- Node0x6000003f1300&#45;&gt;Node0x6000003f12e0 -->
<g id="edge16" class="edge">
<title>Node0x6000003f1300&#45;&gt;Node0x6000003f12e0</title>
<path fill="none" stroke="darkgrey" stroke-width="1.2" d="M296.54,-129.74C296.54,-110.08 296.54,-77.49 296.54,-52.74"/>
<polygon fill="darkgrey" stroke="darkgrey" stroke-width="1.2" points="302.14,-52.4 296.54,-36.4 290.94,-52.4 302.14,-52.4"/>
</g>
<!-- Node0x6000003f1440 -->
<g id="node19" class="node">
<title>Node0x6000003f1440</title>
<polygon fill="none" stroke="red" stroke-width="2" points="507.54,-556 480.54,-538 507.54,-520 534.54,-538 507.54,-556"/>
<text text-anchor="middle" x="507.54" y="-534.3" font-family="Times,serif" font-size="14.00">*</text>
</g>
<!-- Node0x6000003f1460&#45;&gt;Node0x6000003f1440 -->
<g id="edge18" class="edge">
<title>Node0x6000003f1460&#45;&gt;Node0x6000003f1440</title>
<path fill="none" stroke="darkgrey" stroke-width="1.2" d="M507.54,-649.74C507.54,-630.08 507.54,-597.49 507.54,-572.74"/>
<polygon fill="darkgrey" stroke="darkgrey" stroke-width="1.2" points="513.14,-572.4 507.54,-556.4 501.94,-572.4 513.14,-572.4"/>
</g>
<!-- Node0x6000003f1360 -->
<g id="node20" class="node">
<title>Node0x6000003f1360</title>
<polygon fill="none" stroke="blue" stroke-width="2" points="484.54,-400.54 484.54,-415.46 468.72,-426 446.36,-426 430.54,-415.46 430.54,-400.54 446.36,-390 468.72,-390 484.54,-400.54"/>
<text text-anchor="middle" x="457.54" y="-404.3" font-family="Times,serif" font-size="14.00">x</text>
</g>
<!-- Node0x6000003f1440&#45;&gt;Node0x6000003f1360 -->
<g id="edge19" class="edge">
<title>Node0x6000003f1440&#45;&gt;Node0x6000003f1360</title>
<path fill="none" stroke="darkgrey" stroke-width="1.2" d="M502.19,-523.3C494.6,-503.86 480.47,-467.69 470.13,-441.23"/>
<polygon fill="darkgrey" stroke="darkgrey" stroke-width="1.2" points="475.32,-439.11 464.28,-426.25 464.88,-443.19 475.32,-439.11"/>
</g>
<!-- Node0x6000003f13a0 -->
<g id="node21" class="node">
<title>Node0x6000003f13a0</title>
<polygon fill="none" stroke="red" stroke-width="2" points="553.54,-426 520.36,-408 553.54,-390 586.72,-408 553.54,-426"/>
<text text-anchor="middle" x="553.54" y="-404.3" font-family="Times,serif" font-size="14.00">call</text>
</g>
<!-- Node0x6000003f1440&#45;&gt;Node0x6000003f13a0 -->
<g id="edge20" class="edge">
<title>Node0x6000003f1440&#45;&gt;Node0x6000003f13a0</title>
<path fill="none" stroke="darkgrey" stroke-width="1.2" d="M512.64,-522.81C519.93,-502.53 533.49,-464.79 542.99,-438.35"/>
<polygon fill="darkgrey" stroke="darkgrey" stroke-width="1.2" points="548.28,-440.2 548.42,-423.25 537.74,-436.41 548.28,-440.2"/>
</g>
<!-- Node0x6000003f1380 -->
<g id="node22" class="node">
<title>Node0x6000003f1380</title>
<polygon fill="none" stroke="blue" stroke-width="2" points="493.12,-270.54 493.12,-285.46 464.66,-296 424.42,-296 395.96,-285.46 395.96,-270.54 424.42,-260 464.66,-260 493.12,-270.54"/>
<text text-anchor="middle" x="444.54" y="-274.3" font-family="Times,serif" font-size="14.00">fucktorial</text>
</g>
<!-- Node0x6000003f13a0&#45;&gt;Node0x6000003f1380 -->
<g id="edge21" class="edge">
<title>Node0x6000003f13a0&#45;&gt;Node0x6000003f1380</title>
<path fill="none" stroke="darkgrey" stroke-width="1.2" d="M543.48,-395.19C526.91,-375.72 493.36,-336.32 469.94,-308.83"/>
<polygon fill="darkgrey" stroke="darkgrey" stroke-width="1.2" points="474.02,-304.98 459.38,-296.43 465.49,-312.24 474.02,-304.98"/>
</g>
<!-- Node0x6000003f1420 -->
<g id="node23" class="node">
<title>Node0x6000003f1420</title>
<polygon fill="none" stroke="red" stroke-width="2" points="594.54,-296 529.52,-278 594.54,-260 659.56,-278 594.54,-296"/>
<text text-anchor="middle" x="594.54" y="-274.3" font-family="Times,serif" font-size="14.00">parameter</text>
</g>
<!-- Node0x6000003f13a0&#45;&gt;Node0x6000003f1420 -->
<g id="edge22" class="edge">
<title>Node0x6000003f13a0&#45;&gt;Node0x6000003f1420</title>
<path fill="none" stroke="darkgrey" stroke-width="1.2" d="M558.24,-392.32C564.63,-372.39 576.2,-336.26 584.56,-310.15"/>
<polygon fill="darkgrey" stroke="darkgrey" stroke-width="1.2" points="589.96,-311.65 589.51,-294.71 579.3,-308.24 589.96,-311.65"/>
</g>
<!-- Node0x6000003f1400 -->
<g id="node24" class="node">
<title>Node0x6000003f1400</title>
<polygon fill="none" stroke="red" stroke-width="2" points="594.54,-166 567.54,-148 594.54,-130 621.54,-148 594.54,-166"/>
<text text-anchor="middle" x="594.54" y="-144.3" font-family="Times,serif" font-size="14.00">&#45;</text>
</g>
<!-- Node0x6000003f1420&#45;&gt;Node0x6000003f1400 -->
<g id="edge23" class="edge">
<title>Node0x6000003f1420&#45;&gt;Node0x6000003f1400</title>
<path fill="none" stroke="darkgrey" stroke-width="1.2" d="M594.54,-259.74C594.54,-240.08 594.54,-207.49 594.54,-182.74"/>
<polygon fill="darkgrey" stroke="darkgrey" stroke-width="1.2" points="600.14,-182.4 594.54,-166.4 588.94,-182.4 600.14,-182.4"/>
</g>
<!-- Node0x6000003f13c0 -->
<g id="node25" class="node">
<title>Node0x6000003f13c0</title>
<polygon fill="none" stroke="blue" stroke-width="2" points="576.54,-10.54 576.54,-25.46 560.72,-36 538.36,-36 522.54,-25.46 522.54,-10.54 538.36,0 560.72,0 576.54,-10.54"/>
<text text-anchor="middle" x="549.54" y="-14.3" font-family="Times,serif" font-size="14.00">x</text>
</g>
<!-- Node0x6000003f1400&#45;&gt;Node0x6000003f13c0 -->
<g id="edge24" class="edge">
<title>Node0x6000003f1400&#45;&gt;Node0x6000003f13c0</title>
<path fill="none" stroke="darkgrey" stroke-width="1.2" d="M589.55,-132.81C582.69,-113.28 570.13,-77.56 560.91,-51.33"/>
<polygon fill="darkgrey" stroke="darkgrey" stroke-width="1.2" points="566.14,-49.33 555.55,-36.09 555.57,-53.04 566.14,-49.33"/>
</g>
<!-- Node0x6000003f13e0 -->
<g id="node26" class="node">
<title>Node0x6000003f13e0</title>
<ellipse fill="none" stroke="yellow" stroke-width="2" cx="639.54" cy="-18" rx="27" ry="18"/>
<text text-anchor="middle" x="639.54" y="-14.3" font-family="Times,serif" font-size="14.00">1</text>
</g>
<!-- Node0x6000003f1400&#45;&gt;Node0x6000003f13e0 -->
<g id="edge25" class="edge">
<title>Node0x6000003f1400&#45;&gt;Node0x6000003f13e0</title>
<path fill="none" stroke="darkgrey" stroke-width="1.2" d="M599.53,-132.81C606.43,-113.18 619.09,-77.17 628.33,-50.9"/>
<polygon fill="darkgrey" stroke="darkgrey" stroke-width="1.2" points="633.66,-52.63 633.68,-35.67 623.09,-48.91 633.66,-52.63"/>
</g>
<!-- Node0x6000003f14c0 -->
<g id="node28" class="node">
<title>Node0x6000003f14c0</title>
<polygon fill="none" stroke="red" stroke-width="2" points="753.54,-946 696.57,-928 753.54,-910 810.52,-928 753.54,-946"/>
<text text-anchor="middle" x="753.54" y="-924.3" font-family="Times,serif" font-size="14.00">function</text>
</g>
<!-- Node0x6000003f14e0&#45;&gt;Node0x6000003f14c0 -->
<g id="edge27" class="edge">
<title>Node0x6000003f14e0&#45;&gt;Node0x6000003f14c0</title>
<path fill="none" stroke="darkgrey" stroke-width="1.2" d="M753.54,-1039.74C753.54,-1020.08 753.54,-987.49 753.54,-962.74"/>
<polygon fill="darkgrey" stroke="darkgrey" stroke-width="1.2" points="759.14,-962.4 753.54,-946.4 747.94,-962.4 759.14,-962.4"/>
</g>
<!-- Node0x6000003f18c0 -->
<g id="node30" class="node">
<title>Node0x6000003f18c0</title>
<polygon fill="none" stroke="red" stroke-width="2" points="966.54,-946 903.2,-928 966.54,-910 1029.88,-928 966.54,-946"/>
<text text-anchor="middle" x="966.54" y="-924.3" font-family="Times,serif" font-size="14.00">statement</text>
</g>
<!-- Node0x6000003f14e0&#45;&gt;Node0x6000003f18c0 -->
<g id="edge29" class="edge">
<title>Node0x6000003f14e0&#45;&gt;Node0x6000003f18c0</title>
<path fill="none" stroke="darkgrey" stroke-width="1.2" d="M770.97,-1046.53C806.4,-1025.24 887.33,-976.6 933.2,-949.03"/>
<polygon fill="darkgrey" stroke="darkgrey" stroke-width="1.2" points="936.2,-953.76 947.03,-940.72 930.43,-944.16 936.2,-953.76"/>
</g>
<!-- Node0x6000003f1500 -->
<g id="node29" class="node">
<title>Node0x6000003f1500</title>
<polygon fill="none" stroke="blue" stroke-width="2" points="784.45,-790.54 784.45,-805.46 766.34,-816 740.74,-816 722.63,-805.46 722.63,-790.54 740.74,-780 766.34,-780 784.45,-790.54"/>
<text text-anchor="middle" x="753.54" y="-794.3" font-family="Times,serif" font-size="14.00">main</text>
</g>
<!-- Node0x6000003f14c0&#45;&gt;Node0x6000003f1500 -->
<g id="edge28" class="edge">
<title>Node0x6000003f14c0&#45;&gt;Node0x6000003f1500</title>
<path fill="none" stroke="darkgrey" stroke-width="1.2" d="M753.54,-909.74C753.54,-890.08 753.54,-857.49 753.54,-832.74"/>
<polygon fill="darkgrey" stroke="darkgrey" stroke-width="1.2" points="759.14,-832.4 753.54,-816.4 747.94,-832.4 759.14,-832.4"/>
</g>
<!-- Node0x6000003f1800 -->
<g id="node31" class="node">
<title>Node0x6000003f1800</title>
<polygon fill="none" stroke="red" stroke-width="2" points="966.54,-816 903.2,-798 966.54,-780 1029.88,-798 966.54,-816"/>
<text text-anchor="middle" x="966.54" y="-794.3" font-family="Times,serif" font-size="14.00">statement</text>
</g>
<!-- Node0x6000003f18c0&#45;&gt;Node0x6000003f1800 -->
<g id="edge30" class="edge">
<title>Node0x6000003f18c0&#45;&gt;Node0x6000003f1800</title>
<path fill="none" stroke="darkgrey" stroke-width="1.2" d="M966.54,-909.74C966.54,-890.08 966.54,-857.49 966.54,-832.74"/>
<polygon fill="darkgrey" stroke="darkgrey" stroke-width="1.2" points="972.14,-832.4 966.54,-816.4 960.94,-832.4 972.14,-832.4"/>
</g>
<!-- Node0x6000003f18a0 -->
<g id="node55" class="node">
<title>Node0x6000003f18a0</title>
<polygon fill="none" stroke="red" stroke-width="2" points="1271.54,-816 1232.83,-798 1271.54,-780 1310.25,-798 1271.54,-816"/>
<text text-anchor="middle" x="1271.54" y="-794.3" font-family="Times,serif" font-size="14.00">print</text>
</g>
<!-- Node0x6000003f18c0&#45;&gt;Node0x6000003f18a0 -->
<g id="edge54" class="edge">
<title>Node0x6000003f18c0&#45;&gt;Node0x6000003f18a0</title>
<path fill="none" stroke="darkgrey" stroke-width="1.2" d="M990.73,-916.85C1044.66,-894.21 1174.92,-839.55 1237.22,-813.4"/>
<polygon fill="darkgrey" stroke="darkgrey" stroke-width="1.2" points="1239.61,-818.47 1252.19,-807.12 1235.27,-808.15 1239.61,-818.47"/>
</g>
<!-- Node0x6000003f1620 -->
<g id="node32" class="node">
<title>Node0x6000003f1620</title>
<polygon fill="none" stroke="red" stroke-width="2" points="894.54,-686 831.2,-668 894.54,-650 957.88,-668 894.54,-686"/>
<text text-anchor="middle" x="894.54" y="-664.3" font-family="Times,serif" font-size="14.00">statement</text>
</g>
<!-- Node0x6000003f1800&#45;&gt;Node0x6000003f1620 -->
<g id="edge31" class="edge">
<title>Node0x6000003f1800&#45;&gt;Node0x6000003f1620</title>
<path fill="none" stroke="darkgrey" stroke-width="1.2" d="M958.28,-782.32C946.79,-761.88 925.72,-724.43 910.96,-698.19"/>
<polygon fill="darkgrey" stroke="darkgrey" stroke-width="1.2" points="915.65,-695.11 902.93,-683.91 905.89,-700.6 915.65,-695.11"/>
</g>
<!-- Node0x6000003f16a0 -->
<g id="node41" class="node">
<title>Node0x6000003f16a0</title>
<polygon fill="none" stroke="red" stroke-width="2" points="1065.54,-686 1022.14,-668 1065.54,-650 1108.94,-668 1065.54,-686"/>
<text text-anchor="middle" x="1065.54" y="-664.3" font-family="Times,serif" font-size="14.00">while</text>
</g>
<!-- Node0x6000003f1800&#45;&gt;Node0x6000003f16a0 -->
<g id="edge40" class="edge">
<title>Node0x6000003f1800&#45;&gt;Node0x6000003f16a0</title>
<path fill="none" stroke="darkgrey" stroke-width="1.2" d="M977.51,-782.81C993.9,-761.63 1025.03,-721.38 1045.53,-694.87"/>
<polygon fill="darkgrey" stroke="darkgrey" stroke-width="1.2" points="1050.05,-698.18 1055.41,-682.1 1041.19,-691.33 1050.05,-698.18"/>
</g>
<!-- Node0x6000003f1580 -->
<g id="node33" class="node">
<title>Node0x6000003f1580</title>
<polygon fill="none" stroke="red" stroke-width="2" points="768.54,-556 705.2,-538 768.54,-520 831.88,-538 768.54,-556"/>
<text text-anchor="middle" x="768.54" y="-534.3" font-family="Times,serif" font-size="14.00">statement</text>
</g>
<!-- Node0x6000003f1620&#45;&gt;Node0x6000003f1580 -->
<g id="edge32" class="edge">
<title>Node0x6000003f1620&#45;&gt;Node0x6000003f1580</title>
<path fill="none" stroke="darkgrey" stroke-width="1.2" d="M881.06,-653.3C860.12,-632.03 819.48,-590.74 793.2,-564.05"/>
<polygon fill="darkgrey" stroke="darkgrey" stroke-width="1.2" points="797.14,-560.07 781.93,-552.6 789.16,-567.93 797.14,-560.07"/>
</g>
<!-- Node0x6000003f1600 -->
<g id="node38" class="node">
<title>Node0x6000003f1600</title>
<polygon fill="none" stroke="red" stroke-width="2" points="894.54,-556 867.54,-538 894.54,-520 921.54,-538 894.54,-556"/>
<text text-anchor="middle" x="894.54" y="-534.3" font-family="Times,serif" font-size="14.00">=</text>
</g>
<!-- Node0x6000003f1620&#45;&gt;Node0x6000003f1600 -->
<g id="edge37" class="edge">
<title>Node0x6000003f1620&#45;&gt;Node0x6000003f1600</title>
<path fill="none" stroke="darkgrey" stroke-width="1.2" d="M894.54,-649.74C894.54,-630.08 894.54,-597.49 894.54,-572.74"/>
<polygon fill="darkgrey" stroke="darkgrey" stroke-width="1.2" points="900.14,-572.4 894.54,-556.4 888.94,-572.4 900.14,-572.4"/>
</g>
<!-- Node0x6000003f1560 -->
<g id="node34" class="node">
<title>Node0x6000003f1560</title>
<polygon fill="none" stroke="red" stroke-width="2" points="768.54,-426 741.54,-408 768.54,-390 795.54,-408 768.54,-426"/>
<text text-anchor="middle" x="768.54" y="-404.3" font-family="Times,serif" font-size="14.00">=</text>
</g>
<!-- Node0x6000003f1580&#45;&gt;Node0x6000003f1560 -->
<g id="edge33" class="edge">
<title>Node0x6000003f1580&#45;&gt;Node0x6000003f1560</title>
<path fill="none" stroke="darkgrey" stroke-width="1.2" d="M768.54,-519.74C768.54,-500.08 768.54,-467.49 768.54,-442.74"/>
<polygon fill="darkgrey" stroke="darkgrey" stroke-width="1.2" points="774.14,-442.4 768.54,-426.4 762.94,-442.4 774.14,-442.4"/>
</g>
<!-- Node0x6000003f1540 -->
<g id="node35" class="node">
<title>Node0x6000003f1540</title>
<polygon fill="none" stroke="blue" stroke-width="2" points="841.87,-270.54 841.87,-285.46 798.91,-296 738.17,-296 695.21,-285.46 695.21,-270.54 738.17,-260 798.91,-260 841.87,-270.54"/>
<text text-anchor="middle" x="768.54" y="-274.3" font-family="Times,serif" font-size="14.00">Слава Украине</text>
</g>
<!-- Node0x6000003f1560&#45;&gt;Node0x6000003f1540 -->
<g id="edge34" class="edge">
<title>Node0x6000003f1560&#45;&gt;Node0x6000003f1540</title>
<path fill="none" stroke="darkgrey" stroke-width="1.2" d="M768.54,-389.74C768.54,-370.08 768.54,-337.49 768.54,-312.74"/>
<polygon fill="darkgrey" stroke="darkgrey" stroke-width="1.2" points="774.14,-312.4 768.54,-296.4 762.94,-312.4 774.14,-312.4"/>
</g>
<!-- Node0x6000003f15a0 -->
<g id="node37" class="node">
<title>Node0x6000003f15a0</title>
<polygon fill="none" stroke="red" stroke-width="2" points="915.54,-296 877.67,-278 915.54,-260 953.41,-278 915.54,-296"/>
<text text-anchor="middle" x="915.54" y="-274.3" font-family="Times,serif" font-size="14.00">scan</text>
</g>
<!-- Node0x6000003f1560&#45;&gt;Node0x6000003f15a0 -->
<g id="edge36" class="edge">
<title>Node0x6000003f1560&#45;&gt;Node0x6000003f15a0</title>
<path fill="none" stroke="darkgrey" stroke-width="1.2" d="M780.08,-396.96C803.77,-376.33 858.37,-328.78 890.55,-300.76"/>
<polygon fill="darkgrey" stroke="darkgrey" stroke-width="1.2" points="894.43,-304.81 902.82,-290.08 887.07,-296.36 894.43,-304.81"/>
</g>
<!-- Node0x6000003f1520 -->
<g id="node36" class="node">
<title>Node0x6000003f1520</title>
<ellipse fill="none" stroke="yellow" stroke-width="2" cx="768.54" cy="-148" rx="27" ry="18"/>
<text text-anchor="middle" x="768.54" y="-144.3" font-family="Times,serif" font-size="14.00">10</text>
</g>
<!-- Node0x6000003f1540&#45;&gt;Node0x6000003f1520 -->
<g id="edge35" class="edge">
<title>Node0x6000003f1540&#45;&gt;Node0x6000003f1520</title>
<path fill="none" stroke="darkgrey" stroke-width="1.2" d="M768.54,-259.74C768.54,-240.08 768.54,-207.49 768.54,-182.74"/>
<polygon fill="darkgrey" stroke="darkgrey" stroke-width="1.2" points="774.14,-182.4 768.54,-166.4 762.94,-182.4 774.14,-182.4"/>
</g>
<!-- Node0x6000003f15c0 -->
<g id="node39" class="node">
<title>Node0x6000003f15c0</title>
<polygon fill="none" stroke="blue" stroke-width="2" points="885.54,-400.54 885.54,-415.46 869.72,-426 847.36,-426 831.54,-415.46 831.54,-400.54 847.36,-390 869.72,-390 885.54,-400.54"/>
<text text-anchor="middle" x="858.54" y="-404.3" font-family="Times,serif" font-size="14.00">i</text>
</g>
<!-- Node0x6000003f1600&#45;&gt;Node0x6000003f15c0 -->
<g id="edge38" class="edge">
<title>Node0x6000003f1600&#45;&gt;Node0x6000003f15c0</title>
<path fill="none" stroke="darkgrey" stroke-width="1.2" d="M890.41,-522.32C884.93,-502.82 875.08,-467.82 867.78,-441.86"/>
<polygon fill="darkgrey" stroke="darkgrey" stroke-width="1.2" points="873.15,-440.24 863.42,-426.36 862.36,-443.28 873.15,-440.24"/>
</g>
<!-- Node0x6000003f15e0 -->
<g id="node40" class="node">
<title>Node0x6000003f15e0</title>
<ellipse fill="none" stroke="yellow" stroke-width="2" cx="948.54" cy="-408" rx="27" ry="18"/>
<text text-anchor="middle" x="948.54" y="-404.3" font-family="Times,serif" font-size="14.00">0</text>
</g>
<!-- Node0x6000003f1600&#45;&gt;Node0x6000003f15e0 -->
<g id="edge39" class="edge">
<title>Node0x6000003f1600&#45;&gt;Node0x6000003f15e0</title>
<path fill="none" stroke="darkgrey" stroke-width="1.2" d="M900.32,-523.3C908.61,-503.65 924.12,-466.9 935.31,-440.36"/>
<polygon fill="darkgrey" stroke="darkgrey" stroke-width="1.2" points="940.56,-442.33 941.62,-425.41 930.24,-437.97 940.56,-442.33"/>
</g>
<!-- Node0x6000003f1680 -->
<g id="node42" class="node">
<title>Node0x6000003f1680</title>
<polygon fill="none" stroke="red" stroke-width="2" points="1065.54,-556 1038.54,-538 1065.54,-520 1092.54,-538 1065.54,-556"/>
<text text-anchor="middle" x="1065.54" y="-534.3" font-family="Times,serif" font-size="14.00">&lt;</text>
</g>
<!-- Node0x6000003f16a0&#45;&gt;Node0x6000003f1680 -->
<g id="edge41" class="edge">
<title>Node0x6000003f16a0&#45;&gt;Node0x6000003f1680</title>
<path fill="none" stroke="darkgrey" stroke-width="1.2" d="M1065.54,-649.74C1065.54,-630.08 1065.54,-597.49 1065.54,-572.74"/>
<polygon fill="darkgrey" stroke="darkgrey" stroke-width="1.2" points="1071.14,-572.4 1065.54,-556.4 1059.94,-572.4 1071.14,-572.4"/>
</g>
<!-- Node0x6000003f17e0 -->
<g id="node45" class="node">
<title>Node0x6000003f17e0</title>
<polygon fill="none" stroke="red" stroke-width="2" points="1218.54,-556 1155.2,-538 1218.54,-520 1281.88,-538 1218.54,-556"/>
<text text-anchor="middle" x="1218.54" y="-534.3" font-family="Times,serif" font-size="14.00">statement</text>
</g>
<!-- Node0x6000003f16a0&#45;&gt;Node0x6000003f17e0 -->
<g id="edge44" class="edge">
<title>Node0x6000003f16a0&#45;&gt;Node0x6000003f17e0</title>
<path fill="none" stroke="darkgrey" stroke-width="1.2" d="M1079.39,-655.42C1104.47,-634.43 1157.87,-589.75 1190.74,-562.26"/>
<polygon fill="darkgrey" stroke="darkgrey" stroke-width="1.2" points="1194.35,-566.54 1203.03,-551.98 1187.17,-557.95 1194.35,-566.54"/>
</g>
<!-- Node0x6000003f1640 -->
<g id="node43" class="node">
<title>Node0x6000003f1640</title>
<polygon fill="none" stroke="blue" stroke-width="2" points="1065.54,-400.54 1065.54,-415.46 1049.72,-426 1027.36,-426 1011.54,-415.46 1011.54,-400.54 1027.36,-390 1049.72,-390 1065.54,-400.54"/>
<text text-anchor="middle" x="1038.54" y="-404.3" font-family="Times,serif" font-size="14.00">i</text>
</g>
<!-- Node0x6000003f1680&#45;&gt;Node0x6000003f1640 -->
<g id="edge42" class="edge">
<title>Node0x6000003f1680&#45;&gt;Node0x6000003f1640</title>
<path fill="none" stroke="darkgrey" stroke-width="1.2" d="M1062.39,-522.07C1058.28,-502.58 1050.97,-467.91 1045.52,-442.09"/>
<polygon fill="darkgrey" stroke="darkgrey" stroke-width="1.2" points="1050.97,-440.78 1042.19,-426.28 1040.01,-443.09 1050.97,-440.78"/>
</g>
<!-- Node0x6000003f1660 -->
<g id="node44" class="node">
<title>Node0x6000003f1660</title>
<ellipse fill="none" stroke="yellow" stroke-width="2" cx="1128.54" cy="-408" rx="27" ry="18"/>
<text text-anchor="middle" x="1128.54" y="-404.3" font-family="Times,serif" font-size="14.00">11</text>
</g>
<!-- Node0x6000003f1680&#45;&gt;Node0x6000003f1660 -->
<g id="edge43" class="edge">
<title>Node0x6000003f1680&#45;&gt;Node0x6000003f1660</title>
<path fill="none" stroke="darkgrey" stroke-width="1.2" d="M1072.05,-523.78C1081.67,-504.23 1099.99,-467.01 1113.16,-440.25"/>
<polygon fill="darkgrey" stroke="darkgrey" stroke-width="1.2" points="1118.35,-442.38 1120.39,-425.55 1108.3,-437.44 1118.35,-442.38"/>
</g>
<!-- Node0x6000003f1720 -->
<g id="node46" class="node">
<title>Node0x6000003f1720</title>
<polygon fill="none" stroke="red" stroke-width="2" points="1254.54,-426 1191.2,-408 1254.54,-390 1317.88,-408 1254.54,-426"/>
<text text-anchor="middle" x="1254.54" y="-404.3" font-family="Times,serif" font-size="14.00">statement</text>
</g>
<!-- Node0x6000003f17e0&#45;&gt;Node0x6000003f1720 -->
<g id="edge45" class="edge">
<title>Node0x6000003f17e0&#45;&gt;Node0x6000003f1720</title>
<path fill="none" stroke="darkgrey" stroke-width="1.2" d="M1223.03,-521.05C1228.69,-500.91 1238.56,-465.83 1245.75,-440.27"/>
<polygon fill="darkgrey" stroke="darkgrey" stroke-width="1.2" points="1251.17,-441.67 1250.11,-424.75 1240.39,-438.64 1251.17,-441.67"/>
</g>
<!-- Node0x6000003f17c0 -->
<g id="node50" class="node">
<title>Node0x6000003f17c0</title>
<polygon fill="none" stroke="red" stroke-width="2" points="1380.54,-426 1353.54,-408 1380.54,-390 1407.54,-408 1380.54,-426"/>
<text text-anchor="middle" x="1380.54" y="-404.3" font-family="Times,serif" font-size="14.00">=</text>
</g>
<!-- Node0x6000003f17e0&#45;&gt;Node0x6000003f17c0 -->
<g id="edge49" class="edge">
<title>Node0x6000003f17e0&#45;&gt;Node0x6000003f17c0</title>
<path fill="none" stroke="darkgrey" stroke-width="1.2" d="M1234.37,-524.49C1262.65,-502.15 1322.06,-455.21 1355.78,-428.56"/>
<polygon fill="darkgrey" stroke="darkgrey" stroke-width="1.2" points="1359.41,-432.83 1368.5,-418.52 1352.47,-424.04 1359.41,-432.83"/>
</g>
<!-- Node0x6000003f1700 -->
<g id="node47" class="node">
<title>Node0x6000003f1700</title>
<polygon fill="none" stroke="red" stroke-width="2" points="1254.54,-296 1215.83,-278 1254.54,-260 1293.25,-278 1254.54,-296"/>
<text text-anchor="middle" x="1254.54" y="-274.3" font-family="Times,serif" font-size="14.00">print</text>
</g>
<!-- Node0x6000003f1720&#45;&gt;Node0x6000003f1700 -->
<g id="edge46" class="edge">
<title>Node0x6000003f1720&#45;&gt;Node0x6000003f1700</title>
<path fill="none" stroke="darkgrey" stroke-width="1.2" d="M1254.54,-389.74C1254.54,-370.08 1254.54,-337.49 1254.54,-312.74"/>
<polygon fill="darkgrey" stroke="darkgrey" stroke-width="1.2" points="1260.14,-312.4 1254.54,-296.4 1248.94,-312.4 1260.14,-312.4"/>
</g>
<!-- Node0x6000003f16e0 -->
<g id="node48" class="node">
<title>Node0x6000003f16e0</title>
<polygon fill="none" stroke="blue" stroke-width="2" points="1327.87,-140.54 1327.87,-155.46 1284.91,-166 1224.17,-166 1181.21,-155.46 1181.21,-140.54 1224.17,-130 1284.91,-130 1327.87,-140.54"/>
<text text-anchor="middle" x="1254.54" y="-144.3" font-family="Times,serif" font-size="14.00">Слава Украине</text>
</g>
<!-- Node0x6000003f1700&#45;&gt;Node0x6000003f16e0 -->
<g id="edge47" class="edge">
<title>Node0x6000003f1700&#45;&gt;Node0x6000003f16e0</title>
<path fill="none" stroke="darkgrey" stroke-width="1.2" d="M1254.54,-259.74C1254.54,-240.08 1254.54,-207.49 1254.54,-182.74"/>
<polygon fill="darkgrey" stroke="darkgrey" stroke-width="1.2" points="1260.14,-182.4 1254.54,-166.4 1248.94,-182.4 1260.14,-182.4"/>
</g>
<!-- Node0x6000003f16c0 -->
<g id="node49" class="node">
<title>Node0x6000003f16c0</title>
<polygon fill="none" stroke="blue" stroke-width="2" points="1281.54,-10.54 1281.54,-25.46 1265.72,-36 1243.36,-36 1227.54,-25.46 1227.54,-10.54 1243.36,0 1265.72,0 1281.54,-10.54"/>
<text text-anchor="middle" x="1254.54" y="-14.3" font-family="Times,serif" font-size="14.00">i</text>
</g>
<!-- Node0x6000003f16e0&#45;&gt;Node0x6000003f16c0 -->
<g id="edge48" class="edge">
<title>Node0x6000003f16e0&#45;&gt;Node0x6000003f16c0</title>
<path fill="none" stroke="darkgrey" stroke-width="1.2" d="M1254.54,-129.74C1254.54,-110.08 1254.54,-77.49 1254.54,-52.74"/>
<polygon fill="darkgrey" stroke="darkgrey" stroke-width="1.2" points="1260.14,-52.4 1254.54,-36.4 1248.94,-52.4 1260.14,-52.4"/>
</g>
<!-- Node0x6000003f1740 -->
<g id="node51" class="node">
<title>Node0x6000003f1740</title>
<polygon fill="none" stroke="blue" stroke-width="2" points="1395.54,-270.54 1395.54,-285.46 1379.72,-296 1357.36,-296 1341.54,-285.46 1341.54,-270.54 1357.36,-260 1379.72,-260 1395.54,-270.54"/>
<text text-anchor="middle" x="1368.54" y="-274.3" font-family="Times,serif" font-size="14.00">i</text>
</g>
<!-- Node0x6000003f17c0&#45;&gt;Node0x6000003f1740 -->
<g id="edge50" class="edge">
<title>Node0x6000003f17c0&#45;&gt;Node0x6000003f1740</title>
<path fill="none" stroke="darkgrey" stroke-width="1.2" d="M1379.02,-390.79C1377.19,-371.21 1374.05,-337.76 1371.69,-312.54"/>
<polygon fill="darkgrey" stroke="darkgrey" stroke-width="1.2" points="1377.23,-311.71 1370.16,-296.3 1366.08,-312.76 1377.23,-311.71"/>
</g>
<!-- Node0x6000003f17a0 -->
<g id="node52" class="node">
<title>Node0x6000003f17a0</title>
<polygon fill="none" stroke="red" stroke-width="2" points="1458.54,-296 1431.54,-278 1458.54,-260 1485.54,-278 1458.54,-296"/>
<text text-anchor="middle" x="1458.54" y="-274.3" font-family="Times,serif" font-size="14.00">+</text>
</g>
<!-- Node0x6000003f17c0&#45;&gt;Node0x6000003f17a0 -->
<g id="edge51" class="edge">
<title>Node0x6000003f17c0&#45;&gt;Node0x6000003f17a0</title>
<path fill="none" stroke="darkgrey" stroke-width="1.2" d="M1388.02,-394.73C1400.51,-374.23 1425.88,-332.6 1442.54,-305.26"/>
<polygon fill="darkgrey" stroke="darkgrey" stroke-width="1.2" points="1447.43,-308 1450.97,-291.42 1437.86,-302.17 1447.43,-308"/>
</g>
<!-- Node0x6000003f1760 -->
<g id="node53" class="node">
<title>Node0x6000003f1760</title>
<polygon fill="none" stroke="blue" stroke-width="2" points="1457.54,-140.54 1457.54,-155.46 1441.72,-166 1419.36,-166 1403.54,-155.46 1403.54,-140.54 1419.36,-130 1441.72,-130 1457.54,-140.54"/>
<text text-anchor="middle" x="1430.54" y="-144.3" font-family="Times,serif" font-size="14.00">i</text>
</g>
<!-- Node0x6000003f17a0&#45;&gt;Node0x6000003f1760 -->
<g id="edge52" class="edge">
<title>Node0x6000003f17a0&#45;&gt;Node0x6000003f1760</title>
<path fill="none" stroke="darkgrey" stroke-width="1.2" d="M1455.27,-262.07C1451.01,-242.58 1443.43,-207.91 1437.78,-182.09"/>
<polygon fill="darkgrey" stroke="darkgrey" stroke-width="1.2" points="1443.21,-180.71 1434.32,-166.28 1432.27,-183.11 1443.21,-180.71"/>
</g>
<!-- Node0x6000003f1780 -->
<g id="node54" class="node">
<title>Node0x6000003f1780</title>
<ellipse fill="none" stroke="yellow" stroke-width="2" cx="1520.54" cy="-148" rx="27" ry="18"/>
<text text-anchor="middle" x="1520.54" y="-144.3" font-family="Times,serif" font-size="14.00">1</text>
</g>
<!-- Node0x6000003f17a0&#45;&gt;Node0x6000003f1780 -->
<g id="edge53" class="edge">
<title>Node0x6000003f17a0&#45;&gt;Node0x6000003f1780</title>
<path fill="none" stroke="darkgrey" stroke-width="1.2" d="M1464.94,-263.78C1474.42,-244.23 1492.44,-207.01 1505.4,-180.25"/>
<polygon fill="darkgrey" stroke="darkgrey" stroke-width="1.2" points="1510.59,-182.39 1512.52,-165.55 1500.51,-177.51 1510.59,-182.39"/>
</g>
<!-- Node0x6000003f1840 -->
<g id="node56" class="node">
<title>Node0x6000003f1840</title>
<polygon fill="none" stroke="red" stroke-width="2" points="1366.54,-686 1333.36,-668 1366.54,-650 1399.72,-668 1366.54,-686"/>
<text text-anchor="middle" x="1366.54" y="-664.3" font-family="Times,serif" font-size="14.00">call</text>
</g>
<!-- Node0x6000003f18a0&#45;&gt;Node0x6000003f1840 -->
<g id="edge55" class="edge">
<title>Node0x6000003f18a0&#45;&gt;Node0x6000003f1840</title>
<path fill="none" stroke="darkgrey" stroke-width="1.2" d="M1281,-784.26C1296.51,-763.35 1327.65,-721.39 1347.78,-694.28"/>
<polygon fill="darkgrey" stroke="darkgrey" stroke-width="1.2" points="1352.36,-697.5 1357.4,-681.31 1343.37,-690.82 1352.36,-697.5"/>
</g>
<!-- Node0x6000003f1820 -->
<g id="node57" class="node">
<title>Node0x6000003f1820</title>
<polygon fill="none" stroke="blue" stroke-width="2" points="1415.12,-530.54 1415.12,-545.46 1386.66,-556 1346.42,-556 1317.96,-545.46 1317.96,-530.54 1346.42,-520 1386.66,-520 1415.12,-530.54"/>
<text text-anchor="middle" x="1366.54" y="-534.3" font-family="Times,serif" font-size="14.00">fucktorial</text>
</g>
<!-- Node0x6000003f1840&#45;&gt;Node0x6000003f1820 -->
<g id="edge56" class="edge">
<title>Node0x6000003f1840&#45;&gt;Node0x6000003f1820</title>
<path fill="none" stroke="darkgrey" stroke-width="1.2" d="M1366.54,-649.74C1366.54,-630.08 1366.54,-597.49 1366.54,-572.74"/>
<polygon fill="darkgrey" stroke="darkgrey" stroke-width="1.2" points="1372.14,-572.4 1366.54,-556.4 1360.94,-572.4 1372.14,-572.4"/>
</g>
<!-- Node0x6000003f1880 -->
<g id="node58" class="node">
<title>Node0x6000003f1880</title>
<polygon fill="none" stroke="red" stroke-width="2" points="1516.54,-556 1451.52,-538 1516.54,-520 1581.56,-538 1516.54,-556"/>
<text text-anchor="middle" x="1516.54" y="-534.3" font-family="Times,serif" font-size="14.00">parameter</text>
</g>
<!-- Node0x6000003f1840&#45;&gt;Node0x6000003f1880 -->
<g id="edge57" class="edge">
<title>Node0x6000003f1840&#45;&gt;Node0x6000003f1880</title>
<path fill="none" stroke="darkgrey" stroke-width="1.2" d="M1378.82,-656.53C1402.8,-636.06 1456.4,-590.32 1489.21,-562.32"/>
<polygon fill="darkgrey" stroke="darkgrey" stroke-width="1.2" points="1492.92,-566.52 1501.46,-551.87 1485.65,-558 1492.92,-566.52"/>
</g>
<!-- Node0x6000003f1860 -->
<g id="node59" class="node">
<title>Node0x6000003f1860</title>
<polygon fill="none" stroke="red" stroke-width="2" points="1516.54,-426 1478.67,-408 1516.54,-390 1554.41,-408 1516.54,-426"/>
<text text-anchor="middle" x="1516.54" y="-404.3" font-family="Times,serif" font-size="14.00">scan</text>
</g>
<!-- Node0x6000003f1880&#45;&gt;Node0x6000003f1860 -->
<g id="edge58" class="edge">
<title>Node0x6000003f1880&#45;&gt;Node0x6000003f1860</title>
<path fill="none" stroke="darkgrey" stroke-width="1.2" d="M1516.54,-519.74C1516.54,-500.08 1516.54,-467.49 1516.54,-442.74"/>
<polygon fill="darkgrey" stroke="darkgrey" stroke-width="1.2" points="1522.14,-442.4 1516.54,-426.4 1510.94,-442.4 1522.14,-442.4"/>
</g>
</g>
</svg>
