<?xml version="1.0" encoding="UTF-8" standalone="no"?>
<!DOCTYPE svg PUBLIC "-//W3C//DTD SVG 1.1//EN"
 "http://www.w3.org/Graphics/SVG/1.1/DTD/svg11.dtd">
<!-- Generated by graphviz version 9.0.0 (20230911.1827)
 -->
<!-- Pages: 1 -->
<svg width="1600pt" height="1344pt"
 viewBox="0.00 0.00 1599.88 1344.00" xmlns="http://www.w3.org/2000/svg" xmlns:xlink="http://www.w3.org/1999/xlink">
<g id="graph0" class="graph" transform="scale(1 1) rotate(0) translate(4 1340)">
<polygon fill="white" stroke="none" points="-4,4 -4,-1340 1595.88,-1340 1595.88,4 -4,4"/>
<!-- Node0x7fd82f904be0 -->
<g id="node1" class="node">
<title>Node0x7fd82f904be0</title>
<polygon fill="none" stroke="red" stroke-width="2" points="556.6,-1336 490.49,-1318 556.6,-1300 622.7,-1318 556.6,-1336"/>
<text text-anchor="middle" x="556.6" y="-1312.95" font-family="Times,serif" font-size="14.00">statement</text>
</g>
<!-- Node0x7fd82f904740 -->
<g id="node2" class="node">
<title>Node0x7fd82f904740</title>
<polygon fill="none" stroke="red" stroke-width="2" points="481.6,-1206 415.49,-1188 481.6,-1170 547.7,-1188 481.6,-1206"/>
<text text-anchor="middle" x="481.6" y="-1182.95" font-family="Times,serif" font-size="14.00">statement</text>
</g>
<!-- Node0x7fd82f904be0&#45;&gt;Node0x7fd82f904740 -->
<g id="edge1" class="edge">
<title>Node0x7fd82f904be0&#45;&gt;Node0x7fd82f904740</title>
<path fill="none" stroke="darkgrey" stroke-width="1.2" d="M547.55,-1301.56C535.72,-1281.38 514.74,-1245.57 499.62,-1219.75"/>
<polygon fill="darkgrey" stroke="darkgrey" stroke-width="1.2" points="504.51,-1217.04 491.59,-1206.06 494.85,-1222.7 504.51,-1217.04"/>
</g>
<!-- Node0x7fd82f904780 -->
<g id="node27" class="node">
<title>Node0x7fd82f904780</title>
<polygon fill="none" stroke="red" stroke-width="2" points="782.6,-1206 734.58,-1188 782.6,-1170 830.61,-1188 782.6,-1206"/>
<text text-anchor="middle" x="782.6" y="-1182.95" font-family="Times,serif" font-size="14.00">define</text>
</g>
<!-- Node0x7fd82f904be0&#45;&gt;Node0x7fd82f904780 -->
<g id="edge26" class="edge">
<title>Node0x7fd82f904be0&#45;&gt;Node0x7fd82f904780</title>
<path fill="none" stroke="darkgrey" stroke-width="1.2" d="M577.86,-1304.96C616.99,-1282.79 700.74,-1235.36 748.11,-1208.53"/>
<polygon fill="darkgrey" stroke="darkgrey" stroke-width="1.2" points="750.74,-1213.48 761.91,-1200.72 745.22,-1203.73 750.74,-1213.48"/>
</g>
<!-- Node0x7fd82f904460 -->
<g id="node3" class="node">
<title>Node0x7fd82f904460</title>
<polygon fill="none" stroke="red" stroke-width="2" points="413.6,-1076 365.58,-1058 413.6,-1040 461.61,-1058 413.6,-1076"/>
<text text-anchor="middle" x="413.6" y="-1052.95" font-family="Times,serif" font-size="14.00">define</text>
</g>
<!-- Node0x7fd82f904740&#45;&gt;Node0x7fd82f904460 -->
<g id="edge2" class="edge">
<title>Node0x7fd82f904740&#45;&gt;Node0x7fd82f904460</title>
<path fill="none" stroke="darkgrey" stroke-width="1.2" d="M473.26,-1171.3C462.49,-1151.03 443.5,-1115.29 429.84,-1089.57"/>
<polygon fill="darkgrey" stroke="darkgrey" stroke-width="1.2" points="434.88,-1087.13 422.43,-1075.63 424.99,-1092.39 434.88,-1087.13"/>
</g>
<!-- Node0x7fd82f904340 -->
<g id="node4" class="node">
<title>Node0x7fd82f904340</title>
<polygon fill="none" stroke="red" stroke-width="2" points="205.6,-946 146.73,-928 205.6,-910 264.47,-928 205.6,-946"/>
<text text-anchor="middle" x="205.6" y="-922.95" font-family="Times,serif" font-size="14.00">function</text>
</g>
<!-- Node0x7fd82f904460&#45;&gt;Node0x7fd82f904340 -->
<g id="edge3" class="edge">
<title>Node0x7fd82f904460&#45;&gt;Node0x7fd82f904340</title>
<path fill="none" stroke="darkgrey" stroke-width="1.2" d="M395.5,-1045.86C360.89,-1024.57 284.81,-977.75 240.16,-950.27"/>
<polygon fill="darkgrey" stroke="darkgrey" stroke-width="1.2" points="243.11,-945.51 226.55,-941.89 237.24,-955.05 243.11,-945.51"/>
</g>
<!-- Node0x7fd82f904720 -->
<g id="node8" class="node">
<title>Node0x7fd82f904720</title>
<polygon fill="none" stroke="red" stroke-width="2" points="413.6,-946 347.49,-928 413.6,-910 479.7,-928 413.6,-946"/>
<text text-anchor="middle" x="413.6" y="-922.95" font-family="Times,serif" font-size="14.00">statement</text>
</g>
<!-- Node0x7fd82f904460&#45;&gt;Node0x7fd82f904720 -->
<g id="edge7" class="edge">
<title>Node0x7fd82f904460&#45;&gt;Node0x7fd82f904720</title>
<path fill="none" stroke="darkgrey" stroke-width="1.2" d="M413.6,-1038.93C413.6,-1019.68 413.6,-988.72 413.6,-964.55"/>
<polygon fill="darkgrey" stroke="darkgrey" stroke-width="1.2" points="419.2,-964.79 413.6,-948.79 408,-964.79 419.2,-964.79"/>
</g>
<!-- Node0x7fd82f904480 -->
<g id="node5" class="node">
<title>Node0x7fd82f904480</title>
<polygon fill="none" stroke="blue" stroke-width="2" points="101.19,-790.54 101.19,-805.46 71.55,-816 29.64,-816 0,-805.46 0,-790.54 29.64,-780 71.55,-780 101.19,-790.54"/>
<text text-anchor="middle" x="50.6" y="-792.95" font-family="Times,serif" font-size="14.00">fucktorial</text>
</g>
<!-- Node0x7fd82f904340&#45;&gt;Node0x7fd82f904480 -->
<g id="edge4" class="edge">
<title>Node0x7fd82f904340&#45;&gt;Node0x7fd82f904480</title>
<path fill="none" stroke="darkgrey" stroke-width="1.2" d="M189.88,-914.02C165.54,-893.93 118.14,-854.78 85.45,-827.78"/>
<polygon fill="darkgrey" stroke="darkgrey" stroke-width="1.2" points="89.32,-823.72 73.42,-817.85 82.19,-832.35 89.32,-823.72"/>
</g>
<!-- Node0x7fd82f9044c0 -->
<g id="node6" class="node">
<title>Node0x7fd82f9044c0</title>
<polygon fill="none" stroke="red" stroke-width="2" points="205.6,-816 137.32,-798 205.6,-780 273.88,-798 205.6,-816"/>
<text text-anchor="middle" x="205.6" y="-792.95" font-family="Times,serif" font-size="14.00">parameter</text>
</g>
<!-- Node0x7fd82f904340&#45;&gt;Node0x7fd82f9044c0 -->
<g id="edge5" class="edge">
<title>Node0x7fd82f904340&#45;&gt;Node0x7fd82f9044c0</title>
<path fill="none" stroke="darkgrey" stroke-width="1.2" d="M205.6,-909.2C205.6,-889.91 205.6,-858.61 205.6,-834.29"/>
<polygon fill="darkgrey" stroke="darkgrey" stroke-width="1.2" points="211.2,-834.46 205.6,-818.46 200,-834.46 211.2,-834.46"/>
</g>
<!-- Node0x7fd82f9044a0 -->
<g id="node7" class="node">
<title>Node0x7fd82f9044a0</title>
<polygon fill="none" stroke="blue" stroke-width="2" points="232.6,-660.54 232.6,-675.46 216.78,-686 194.41,-686 178.6,-675.46 178.6,-660.54 194.41,-650 216.78,-650 232.6,-660.54"/>
<text text-anchor="middle" x="205.6" y="-662.95" font-family="Times,serif" font-size="14.00">x</text>
</g>
<!-- Node0x7fd82f9044c0&#45;&gt;Node0x7fd82f9044a0 -->
<g id="edge6" class="edge">
<title>Node0x7fd82f9044c0&#45;&gt;Node0x7fd82f9044a0</title>
<path fill="none" stroke="darkgrey" stroke-width="1.2" d="M205.6,-779.2C205.6,-759.91 205.6,-728.61 205.6,-704.29"/>
<polygon fill="darkgrey" stroke="darkgrey" stroke-width="1.2" points="211.2,-704.46 205.6,-688.46 200,-704.46 211.2,-704.46"/>
</g>
<!-- Node0x7fd82f9045e0 -->
<g id="node9" class="node">
<title>Node0x7fd82f9045e0</title>
<polygon fill="none" stroke="red" stroke-width="2" points="375.6,-816 309.49,-798 375.6,-780 441.7,-798 375.6,-816"/>
<text text-anchor="middle" x="375.6" y="-792.95" font-family="Times,serif" font-size="14.00">statement</text>
</g>
<!-- Node0x7fd82f904720&#45;&gt;Node0x7fd82f9045e0 -->
<g id="edge8" class="edge">
<title>Node0x7fd82f904720&#45;&gt;Node0x7fd82f9045e0</title>
<path fill="none" stroke="darkgrey" stroke-width="1.2" d="M408.71,-910.53C402.86,-890.85 392.94,-857.43 385.48,-832.29"/>
<polygon fill="darkgrey" stroke="darkgrey" stroke-width="1.2" points="390.91,-830.89 380.98,-817.15 380.17,-834.08 390.91,-830.89"/>
</g>
<!-- Node0x7fd82f904700 -->
<g id="node18" class="node">
<title>Node0x7fd82f904700</title>
<polygon fill="none" stroke="red" stroke-width="2" points="524.6,-816 478.03,-798 524.6,-780 571.16,-798 524.6,-816"/>
<text text-anchor="middle" x="524.6" y="-792.95" font-family="Times,serif" font-size="14.00">return</text>
</g>
<!-- Node0x7fd82f904720&#45;&gt;Node0x7fd82f904700 -->
<g id="edge17" class="edge">
<title>Node0x7fd82f904720&#45;&gt;Node0x7fd82f904700</title>
<path fill="none" stroke="darkgrey" stroke-width="1.2" d="M425.9,-912.81C444.09,-891.83 478.49,-852.16 501.49,-825.65"/>
<polygon fill="darkgrey" stroke="darkgrey" stroke-width="1.2" points="505.47,-829.61 511.72,-813.85 497.01,-822.27 505.47,-829.61"/>
</g>
<!-- Node0x7fd82f904560 -->
<g id="node10" class="node">
<title>Node0x7fd82f904560</title>
<polygon fill="none" stroke="red" stroke-width="2" points="324.6,-686 297.6,-668 324.6,-650 351.6,-668 324.6,-686"/>
<text text-anchor="middle" x="324.6" y="-662.95" font-family="Times,serif" font-size="14.00">if</text>
</g>
<!-- Node0x7fd82f9045e0&#45;&gt;Node0x7fd82f904560 -->
<g id="edge9" class="edge">
<title>Node0x7fd82f9045e0&#45;&gt;Node0x7fd82f904560</title>
<path fill="none" stroke="darkgrey" stroke-width="1.2" d="M369.14,-780.79C361.03,-760.43 346.95,-725.1 336.79,-699.6"/>
<polygon fill="darkgrey" stroke="darkgrey" stroke-width="1.2" points="342.02,-697.6 330.89,-684.81 331.61,-701.74 342.02,-697.6"/>
</g>
<!-- Node0x7fd82f904520 -->
<g id="node11" class="node">
<title>Node0x7fd82f904520</title>
<polygon fill="none" stroke="red" stroke-width="2" points="195.6,-556 164.23,-538 195.6,-520 226.96,-538 195.6,-556"/>
<text text-anchor="middle" x="195.6" y="-532.95" font-family="Times,serif" font-size="14.00">==</text>
</g>
<!-- Node0x7fd82f904560&#45;&gt;Node0x7fd82f904520 -->
<g id="edge10" class="edge">
<title>Node0x7fd82f904560&#45;&gt;Node0x7fd82f904520</title>
<path fill="none" stroke="darkgrey" stroke-width="1.2" d="M314.04,-656.53C293.55,-636.2 247.94,-590.93 219.67,-562.89"/>
<polygon fill="darkgrey" stroke="darkgrey" stroke-width="1.2" points="223.63,-558.92 208.32,-551.63 215.74,-566.87 223.63,-558.92"/>
</g>
<!-- Node0x7fd82f904540 -->
<g id="node14" class="node">
<title>Node0x7fd82f904540</title>
<polygon fill="none" stroke="red" stroke-width="2" points="324.6,-556 265.73,-538 324.6,-520 383.47,-538 324.6,-556"/>
<text text-anchor="middle" x="324.6" y="-532.95" font-family="Times,serif" font-size="14.00">decision</text>
</g>
<!-- Node0x7fd82f904560&#45;&gt;Node0x7fd82f904540 -->
<g id="edge13" class="edge">
<title>Node0x7fd82f904560&#45;&gt;Node0x7fd82f904540</title>
<path fill="none" stroke="darkgrey" stroke-width="1.2" d="M324.6,-648.93C324.6,-629.68 324.6,-598.72 324.6,-574.55"/>
<polygon fill="darkgrey" stroke="darkgrey" stroke-width="1.2" points="330.2,-574.79 324.6,-558.79 319,-574.79 330.2,-574.79"/>
</g>
<!-- Node0x7fd82f9044e0 -->
<g id="node12" class="node">
<title>Node0x7fd82f9044e0</title>
<polygon fill="none" stroke="blue" stroke-width="2" points="132.6,-400.54 132.6,-415.46 116.78,-426 94.41,-426 78.6,-415.46 78.6,-400.54 94.41,-390 116.78,-390 132.6,-400.54"/>
<text text-anchor="middle" x="105.6" y="-402.95" font-family="Times,serif" font-size="14.00">x</text>
</g>
<!-- Node0x7fd82f904520&#45;&gt;Node0x7fd82f9044e0 -->
<g id="edge11" class="edge">
<title>Node0x7fd82f904520&#45;&gt;Node0x7fd82f9044e0</title>
<path fill="none" stroke="darkgrey" stroke-width="1.2" d="M186.64,-524.26C173.03,-504.91 146.75,-467.53 127.8,-440.58"/>
<polygon fill="darkgrey" stroke="darkgrey" stroke-width="1.2" points="132.47,-437.48 118.68,-427.61 123.3,-443.92 132.47,-437.48"/>
</g>
<!-- Node0x7fd82f904500 -->
<g id="node13" class="node">
<title>Node0x7fd82f904500</title>
<ellipse fill="none" stroke="yellow" stroke-width="2" cx="195.6" cy="-408" rx="27" ry="18"/>
<text text-anchor="middle" x="195.6" y="-402.95" font-family="Times,serif" font-size="14.00">1</text>
</g>
<!-- Node0x7fd82f904520&#45;&gt;Node0x7fd82f904500 -->
<g id="edge12" class="edge">
<title>Node0x7fd82f904520&#45;&gt;Node0x7fd82f904500</title>
<path fill="none" stroke="darkgrey" stroke-width="1.2" d="M195.6,-518.93C195.6,-499.68 195.6,-468.72 195.6,-444.55"/>
<polygon fill="darkgrey" stroke="darkgrey" stroke-width="1.2" points="201.2,-444.79 195.6,-428.79 190,-444.79 201.2,-444.79"/>
</g>
<!-- Node0x7fd82f9045c0 -->
<g id="node15" class="node">
<title>Node0x7fd82f9045c0</title>
<polygon fill="none" stroke="red" stroke-width="2" points="324.6,-426 258.49,-408 324.6,-390 390.7,-408 324.6,-426"/>
<text text-anchor="middle" x="324.6" y="-402.95" font-family="Times,serif" font-size="14.00">statement</text>
</g>
<!-- Node0x7fd82f904540&#45;&gt;Node0x7fd82f9045c0 -->
<g id="edge14" class="edge">
<title>Node0x7fd82f904540&#45;&gt;Node0x7fd82f9045c0</title>
<path fill="none" stroke="darkgrey" stroke-width="1.2" d="M324.6,-519.2C324.6,-499.91 324.6,-468.61 324.6,-444.29"/>
<polygon fill="darkgrey" stroke="darkgrey" stroke-width="1.2" points="330.2,-444.46 324.6,-428.46 319,-444.46 330.2,-444.46"/>
</g>
<!-- Node0x7fd82f9045a0 -->
<g id="node16" class="node">
<title>Node0x7fd82f9045a0</title>
<polygon fill="none" stroke="red" stroke-width="2" points="324.6,-296 278.03,-278 324.6,-260 371.16,-278 324.6,-296"/>
<text text-anchor="middle" x="324.6" y="-272.95" font-family="Times,serif" font-size="14.00">return</text>
</g>
<!-- Node0x7fd82f9045c0&#45;&gt;Node0x7fd82f9045a0 -->
<g id="edge15" class="edge">
<title>Node0x7fd82f9045c0&#45;&gt;Node0x7fd82f9045a0</title>
<path fill="none" stroke="darkgrey" stroke-width="1.2" d="M324.6,-389.2C324.6,-370.01 324.6,-338.96 324.6,-314.7"/>
<polygon fill="darkgrey" stroke="darkgrey" stroke-width="1.2" points="330.2,-314.88 324.6,-298.88 319,-314.88 330.2,-314.88"/>
</g>
<!-- Node0x7fd82f904580 -->
<g id="node17" class="node">
<title>Node0x7fd82f904580</title>
<ellipse fill="none" stroke="yellow" stroke-width="2" cx="324.6" cy="-148" rx="27" ry="18"/>
<text text-anchor="middle" x="324.6" y="-142.95" font-family="Times,serif" font-size="14.00">1</text>
</g>
<!-- Node0x7fd82f9045a0&#45;&gt;Node0x7fd82f904580 -->
<g id="edge16" class="edge">
<title>Node0x7fd82f9045a0&#45;&gt;Node0x7fd82f904580</title>
<path fill="none" stroke="darkgrey" stroke-width="1.2" d="M324.6,-258.93C324.6,-239.68 324.6,-208.72 324.6,-184.55"/>
<polygon fill="darkgrey" stroke="darkgrey" stroke-width="1.2" points="330.2,-184.79 324.6,-168.79 319,-184.79 330.2,-184.79"/>
</g>
<!-- Node0x7fd82f9046e0 -->
<g id="node19" class="node">
<title>Node0x7fd82f9046e0</title>
<polygon fill="none" stroke="red" stroke-width="2" points="524.6,-686 497.6,-668 524.6,-650 551.6,-668 524.6,-686"/>
<text text-anchor="middle" x="524.6" y="-662.95" font-family="Times,serif" font-size="14.00">*</text>
</g>
<!-- Node0x7fd82f904700&#45;&gt;Node0x7fd82f9046e0 -->
<g id="edge18" class="edge">
<title>Node0x7fd82f904700&#45;&gt;Node0x7fd82f9046e0</title>
<path fill="none" stroke="darkgrey" stroke-width="1.2" d="M524.6,-778.93C524.6,-759.68 524.6,-728.72 524.6,-704.55"/>
<polygon fill="darkgrey" stroke="darkgrey" stroke-width="1.2" points="530.2,-704.79 524.6,-688.79 519,-704.79 530.2,-704.79"/>
</g>
<!-- Node0x7fd82f904600 -->
<g id="node20" class="node">
<title>Node0x7fd82f904600</title>
<polygon fill="none" stroke="blue" stroke-width="2" points="527.6,-530.54 527.6,-545.46 511.78,-556 489.41,-556 473.6,-545.46 473.6,-530.54 489.41,-520 511.78,-520 527.6,-530.54"/>
<text text-anchor="middle" x="500.6" y="-532.95" font-family="Times,serif" font-size="14.00">x</text>
</g>
<!-- Node0x7fd82f9046e0&#45;&gt;Node0x7fd82f904600 -->
<g id="edge19" class="edge">
<title>Node0x7fd82f9046e0&#45;&gt;Node0x7fd82f904600</title>
<path fill="none" stroke="darkgrey" stroke-width="1.2" d="M521.61,-651.05C518.02,-631.93 511.91,-599.33 507.2,-574.21"/>
<polygon fill="darkgrey" stroke="darkgrey" stroke-width="1.2" points="512.72,-573.28 504.27,-558.59 501.71,-575.34 512.72,-573.28"/>
</g>
<!-- Node0x7fd82f904640 -->
<g id="node21" class="node">
<title>Node0x7fd82f904640</title>
<polygon fill="none" stroke="red" stroke-width="2" points="597.6,-556 563.34,-538 597.6,-520 631.86,-538 597.6,-556"/>
<text text-anchor="middle" x="597.6" y="-532.95" font-family="Times,serif" font-size="14.00">call</text>
</g>
<!-- Node0x7fd82f9046e0&#45;&gt;Node0x7fd82f904640 -->
<g id="edge20" class="edge">
<title>Node0x7fd82f9046e0&#45;&gt;Node0x7fd82f904640</title>
<path fill="none" stroke="darkgrey" stroke-width="1.2" d="M531.86,-654.26C543.22,-634.35 565.46,-595.34 580.91,-568.25"/>
<polygon fill="darkgrey" stroke="darkgrey" stroke-width="1.2" points="585.74,-571.1 588.8,-554.42 576.01,-565.55 585.74,-571.1"/>
</g>
<!-- Node0x7fd82f904620 -->
<g id="node22" class="node">
<title>Node0x7fd82f904620</title>
<polygon fill="none" stroke="blue" stroke-width="2" points="528.19,-400.54 528.19,-415.46 498.55,-426 456.64,-426 427,-415.46 427,-400.54 456.64,-390 498.55,-390 528.19,-400.54"/>
<text text-anchor="middle" x="477.6" y="-402.95" font-family="Times,serif" font-size="14.00">fucktorial</text>
</g>
<!-- Node0x7fd82f904640&#45;&gt;Node0x7fd82f904620 -->
<g id="edge21" class="edge">
<title>Node0x7fd82f904640&#45;&gt;Node0x7fd82f904620</title>
<path fill="none" stroke="darkgrey" stroke-width="1.2" d="M586.52,-525.19C568.45,-505.92 532.07,-467.11 506.34,-439.66"/>
<polygon fill="darkgrey" stroke="darkgrey" stroke-width="1.2" points="510.62,-436.03 495.59,-428.19 502.45,-443.69 510.62,-436.03"/>
</g>
<!-- Node0x7fd82f9046c0 -->
<g id="node23" class="node">
<title>Node0x7fd82f9046c0</title>
<polygon fill="none" stroke="red" stroke-width="2" points="632.6,-426 564.32,-408 632.6,-390 700.88,-408 632.6,-426"/>
<text text-anchor="middle" x="632.6" y="-402.95" font-family="Times,serif" font-size="14.00">parameter</text>
</g>
<!-- Node0x7fd82f904640&#45;&gt;Node0x7fd82f9046c0 -->
<g id="edge22" class="edge">
<title>Node0x7fd82f904640&#45;&gt;Node0x7fd82f9046c0</title>
<path fill="none" stroke="darkgrey" stroke-width="1.2" d="M601.89,-521.3C607.21,-501.85 616.42,-468.14 623.38,-442.72"/>
<polygon fill="darkgrey" stroke="darkgrey" stroke-width="1.2" points="628.75,-444.3 627.57,-427.39 617.95,-441.34 628.75,-444.3"/>
</g>
<!-- Node0x7fd82f9046a0 -->
<g id="node24" class="node">
<title>Node0x7fd82f9046a0</title>
<polygon fill="none" stroke="red" stroke-width="2" points="602.6,-296 575.6,-278 602.6,-260 629.6,-278 602.6,-296"/>
<text text-anchor="middle" x="602.6" y="-272.95" font-family="Times,serif" font-size="14.00">&#45;</text>
</g>
<!-- Node0x7fd82f9046c0&#45;&gt;Node0x7fd82f9046a0 -->
<g id="edge23" class="edge">
<title>Node0x7fd82f9046c0&#45;&gt;Node0x7fd82f9046a0</title>
<path fill="none" stroke="darkgrey" stroke-width="1.2" d="M628.67,-390.27C624.02,-370.39 616.14,-336.79 610.26,-311.69"/>
<polygon fill="darkgrey" stroke="darkgrey" stroke-width="1.2" points="615.76,-310.6 606.65,-296.3 604.85,-313.16 615.76,-310.6"/>
</g>
<!-- Node0x7fd82f904660 -->
<g id="node25" class="node">
<title>Node0x7fd82f904660</title>
<polygon fill="none" stroke="blue" stroke-width="2" points="576.6,-140.54 576.6,-155.46 560.78,-166 538.41,-166 522.6,-155.46 522.6,-140.54 538.41,-130 560.78,-130 576.6,-140.54"/>
<text text-anchor="middle" x="549.6" y="-142.95" font-family="Times,serif" font-size="14.00">x</text>
</g>
<!-- Node0x7fd82f9046a0&#45;&gt;Node0x7fd82f904660 -->
<g id="edge24" class="edge">
<title>Node0x7fd82f9046a0&#45;&gt;Node0x7fd82f904660</title>
<path fill="none" stroke="darkgrey" stroke-width="1.2" d="M596.72,-262.81C588.84,-243.77 574.58,-209.34 563.81,-183.32"/>
<polygon fill="darkgrey" stroke="darkgrey" stroke-width="1.2" points="569.02,-181.26 557.72,-168.62 558.67,-185.54 569.02,-181.26"/>
</g>
<!-- Node0x7fd82f904680 -->
<g id="node26" class="node">
<title>Node0x7fd82f904680</title>
<ellipse fill="none" stroke="yellow" stroke-width="2" cx="639.6" cy="-148" rx="27" ry="18"/>
<text text-anchor="middle" x="639.6" y="-142.95" font-family="Times,serif" font-size="14.00">1</text>
</g>
<!-- Node0x7fd82f9046a0&#45;&gt;Node0x7fd82f904680 -->
<g id="edge25" class="edge">
<title>Node0x7fd82f9046a0&#45;&gt;Node0x7fd82f904680</title>
<path fill="none" stroke="darkgrey" stroke-width="1.2" d="M606.99,-261.81C612.53,-242.63 622.24,-209.04 629.63,-183.49"/>
<polygon fill="darkgrey" stroke="darkgrey" stroke-width="1.2" points="634.94,-185.29 634,-168.37 624.18,-182.18 634.94,-185.29"/>
</g>
<!-- Node0x7fd82f904760 -->
<g id="node28" class="node">
<title>Node0x7fd82f904760</title>
<polygon fill="none" stroke="red" stroke-width="2" points="782.6,-1076 723.73,-1058 782.6,-1040 841.47,-1058 782.6,-1076"/>
<text text-anchor="middle" x="782.6" y="-1052.95" font-family="Times,serif" font-size="14.00">function</text>
</g>
<!-- Node0x7fd82f904780&#45;&gt;Node0x7fd82f904760 -->
<g id="edge27" class="edge">
<title>Node0x7fd82f904780&#45;&gt;Node0x7fd82f904760</title>
<path fill="none" stroke="darkgrey" stroke-width="1.2" d="M782.6,-1168.93C782.6,-1149.68 782.6,-1118.72 782.6,-1094.55"/>
<polygon fill="darkgrey" stroke="darkgrey" stroke-width="1.2" points="788.2,-1094.79 782.6,-1078.79 777,-1094.79 788.2,-1094.79"/>
</g>
<!-- Node0x7fd82f904bc0 -->
<g id="node30" class="node">
<title>Node0x7fd82f904bc0</title>
<polygon fill="none" stroke="red" stroke-width="2" points="1019.6,-1076 953.49,-1058 1019.6,-1040 1085.7,-1058 1019.6,-1076"/>
<text text-anchor="middle" x="1019.6" y="-1052.95" font-family="Times,serif" font-size="14.00">statement</text>
</g>
<!-- Node0x7fd82f904780&#45;&gt;Node0x7fd82f904bc0 -->
<g id="edge29" class="edge">
<title>Node0x7fd82f904780&#45;&gt;Node0x7fd82f904bc0</title>
<path fill="none" stroke="darkgrey" stroke-width="1.2" d="M801.99,-1176.53C841.31,-1155.29 931,-1106.85 982.11,-1079.24"/>
<polygon fill="darkgrey" stroke="darkgrey" stroke-width="1.2" points="984.53,-1084.31 995.94,-1071.77 979.2,-1074.45 984.53,-1084.31"/>
</g>
<!-- Node0x7fd82f9047a0 -->
<g id="node29" class="node">
<title>Node0x7fd82f9047a0</title>
<polygon fill="none" stroke="blue" stroke-width="2" points="814.91,-920.54 814.91,-935.46 795.98,-946 769.21,-946 750.28,-935.46 750.28,-920.54 769.21,-910 795.98,-910 814.91,-920.54"/>
<text text-anchor="middle" x="782.6" y="-922.95" font-family="Times,serif" font-size="14.00">main</text>
</g>
<!-- Node0x7fd82f904760&#45;&gt;Node0x7fd82f9047a0 -->
<g id="edge28" class="edge">
<title>Node0x7fd82f904760&#45;&gt;Node0x7fd82f9047a0</title>
<path fill="none" stroke="darkgrey" stroke-width="1.2" d="M782.6,-1039.2C782.6,-1019.91 782.6,-988.61 782.6,-964.29"/>
<polygon fill="darkgrey" stroke="darkgrey" stroke-width="1.2" points="788.2,-964.46 782.6,-948.46 777,-964.46 788.2,-964.46"/>
</g>
<!-- Node0x7fd82f904b60 -->
<g id="node31" class="node">
<title>Node0x7fd82f904b60</title>
<polygon fill="none" stroke="red" stroke-width="2" points="1019.6,-946 953.49,-928 1019.6,-910 1085.7,-928 1019.6,-946"/>
<text text-anchor="middle" x="1019.6" y="-922.95" font-family="Times,serif" font-size="14.00">statement</text>
</g>
<!-- Node0x7fd82f904bc0&#45;&gt;Node0x7fd82f904b60 -->
<g id="edge30" class="edge">
<title>Node0x7fd82f904bc0&#45;&gt;Node0x7fd82f904b60</title>
<path fill="none" stroke="darkgrey" stroke-width="1.2" d="M1019.6,-1039.2C1019.6,-1019.91 1019.6,-988.61 1019.6,-964.29"/>
<polygon fill="darkgrey" stroke="darkgrey" stroke-width="1.2" points="1025.2,-964.46 1019.6,-948.46 1014,-964.46 1025.2,-964.46"/>
</g>
<!-- Node0x7fd82f904ba0 -->
<g id="node61" class="node">
<title>Node0x7fd82f904ba0</title>
<polygon fill="none" stroke="red" stroke-width="2" points="1216.6,-946 1170.03,-928 1216.6,-910 1263.16,-928 1216.6,-946"/>
<text text-anchor="middle" x="1216.6" y="-922.95" font-family="Times,serif" font-size="14.00">return</text>
</g>
<!-- Node0x7fd82f904bc0&#45;&gt;Node0x7fd82f904ba0 -->
<g id="edge60" class="edge">
<title>Node0x7fd82f904bc0&#45;&gt;Node0x7fd82f904ba0</title>
<path fill="none" stroke="darkgrey" stroke-width="1.2" d="M1038.84,-1044.49C1072.69,-1022.5 1143.19,-976.7 1184.51,-949.85"/>
<polygon fill="darkgrey" stroke="darkgrey" stroke-width="1.2" points="1187.37,-954.67 1197.74,-941.25 1181.27,-945.27 1187.37,-954.67"/>
</g>
<!-- Node0x7fd82f904aa0 -->
<g id="node32" class="node">
<title>Node0x7fd82f904aa0</title>
<polygon fill="none" stroke="red" stroke-width="2" points="995.6,-816 929.49,-798 995.6,-780 1061.7,-798 995.6,-816"/>
<text text-anchor="middle" x="995.6" y="-792.95" font-family="Times,serif" font-size="14.00">statement</text>
</g>
<!-- Node0x7fd82f904b60&#45;&gt;Node0x7fd82f904aa0 -->
<g id="edge31" class="edge">
<title>Node0x7fd82f904b60&#45;&gt;Node0x7fd82f904aa0</title>
<path fill="none" stroke="darkgrey" stroke-width="1.2" d="M1016.41,-910C1012.77,-890.59 1006.72,-858.32 1002.08,-833.56"/>
<polygon fill="darkgrey" stroke="darkgrey" stroke-width="1.2" points="1007.58,-832.55 999.13,-817.85 996.58,-834.61 1007.58,-832.55"/>
</g>
<!-- Node0x7fd82f904b40 -->
<g id="node56" class="node">
<title>Node0x7fd82f904b40</title>
<polygon fill="none" stroke="red" stroke-width="2" points="1137.6,-816 1097.55,-798 1137.6,-780 1177.65,-798 1137.6,-816"/>
<text text-anchor="middle" x="1137.6" y="-792.95" font-family="Times,serif" font-size="14.00">print</text>
</g>
<!-- Node0x7fd82f904b60&#45;&gt;Node0x7fd82f904b40 -->
<g id="edge55" class="edge">
<title>Node0x7fd82f904b60&#45;&gt;Node0x7fd82f904b40</title>
<path fill="none" stroke="darkgrey" stroke-width="1.2" d="M1032.68,-912.81C1052.31,-891.52 1089.7,-850.96 1114.13,-824.46"/>
<polygon fill="darkgrey" stroke="darkgrey" stroke-width="1.2" points="1117.91,-828.62 1124.64,-813.06 1109.68,-821.02 1117.91,-828.62"/>
</g>
<!-- Node0x7fd82f9048c0 -->
<g id="node33" class="node">
<title>Node0x7fd82f9048c0</title>
<polygon fill="none" stroke="red" stroke-width="2" points="922.6,-686 856.49,-668 922.6,-650 988.7,-668 922.6,-686"/>
<text text-anchor="middle" x="922.6" y="-662.95" font-family="Times,serif" font-size="14.00">statement</text>
</g>
<!-- Node0x7fd82f904aa0&#45;&gt;Node0x7fd82f9048c0 -->
<g id="edge32" class="edge">
<title>Node0x7fd82f904aa0&#45;&gt;Node0x7fd82f9048c0</title>
<path fill="none" stroke="darkgrey" stroke-width="1.2" d="M986.79,-781.56C975.28,-761.38 954.86,-725.57 940.13,-699.75"/>
<polygon fill="darkgrey" stroke="darkgrey" stroke-width="1.2" points="945.12,-697.2 932.33,-686.07 935.4,-702.75 945.12,-697.2"/>
</g>
<!-- Node0x7fd82f904940 -->
<g id="node42" class="node">
<title>Node0x7fd82f904940</title>
<polygon fill="none" stroke="red" stroke-width="2" points="1080.6,-686 1036.2,-668 1080.6,-650 1124.99,-668 1080.6,-686"/>
<text text-anchor="middle" x="1080.6" y="-662.95" font-family="Times,serif" font-size="14.00">while</text>
</g>
<!-- Node0x7fd82f904aa0&#45;&gt;Node0x7fd82f904940 -->
<g id="edge41" class="edge">
<title>Node0x7fd82f904aa0&#45;&gt;Node0x7fd82f904940</title>
<path fill="none" stroke="darkgrey" stroke-width="1.2" d="M1005.68,-781.81C1019.45,-761.08 1044.38,-723.53 1061.69,-697.48"/>
<polygon fill="darkgrey" stroke="darkgrey" stroke-width="1.2" points="1066.11,-700.93 1070.3,-684.51 1056.78,-694.74 1066.11,-700.93"/>
</g>
<!-- Node0x7fd82f904820 -->
<g id="node34" class="node">
<title>Node0x7fd82f904820</title>
<polygon fill="none" stroke="red" stroke-width="2" points="771.6,-556 705.49,-538 771.6,-520 837.7,-538 771.6,-556"/>
<text text-anchor="middle" x="771.6" y="-532.95" font-family="Times,serif" font-size="14.00">statement</text>
</g>
<!-- Node0x7fd82f9048c0&#45;&gt;Node0x7fd82f904820 -->
<g id="edge33" class="edge">
<title>Node0x7fd82f9048c0&#45;&gt;Node0x7fd82f904820</title>
<path fill="none" stroke="darkgrey" stroke-width="1.2" d="M906.72,-653.54C881.62,-632.27 832.38,-590.52 800.78,-563.74"/>
<polygon fill="darkgrey" stroke="darkgrey" stroke-width="1.2" points="804.47,-559.52 788.64,-553.45 797.23,-568.07 804.47,-559.52"/>
</g>
<!-- Node0x7fd82f9048a0 -->
<g id="node39" class="node">
<title>Node0x7fd82f9048a0</title>
<polygon fill="none" stroke="red" stroke-width="2" points="922.6,-556 895.6,-538 922.6,-520 949.6,-538 922.6,-556"/>
<text text-anchor="middle" x="922.6" y="-532.95" font-family="Times,serif" font-size="14.00">=</text>
</g>
<!-- Node0x7fd82f9048c0&#45;&gt;Node0x7fd82f9048a0 -->
<g id="edge38" class="edge">
<title>Node0x7fd82f9048c0&#45;&gt;Node0x7fd82f9048a0</title>
<path fill="none" stroke="darkgrey" stroke-width="1.2" d="M922.6,-649.2C922.6,-630.01 922.6,-598.96 922.6,-574.7"/>
<polygon fill="darkgrey" stroke="darkgrey" stroke-width="1.2" points="928.2,-574.88 922.6,-558.88 917,-574.88 928.2,-574.88"/>
</g>
<!-- Node0x7fd82f904800 -->
<g id="node35" class="node">
<title>Node0x7fd82f904800</title>
<polygon fill="none" stroke="red" stroke-width="2" points="765.6,-426 738.6,-408 765.6,-390 792.6,-408 765.6,-426"/>
<text text-anchor="middle" x="765.6" y="-402.95" font-family="Times,serif" font-size="14.00">=</text>
</g>
<!-- Node0x7fd82f904820&#45;&gt;Node0x7fd82f904800 -->
<g id="edge34" class="edge">
<title>Node0x7fd82f904820&#45;&gt;Node0x7fd82f904800</title>
<path fill="none" stroke="darkgrey" stroke-width="1.2" d="M770.76,-519.2C769.86,-499.91 768.39,-468.61 767.25,-444.29"/>
<polygon fill="darkgrey" stroke="darkgrey" stroke-width="1.2" points="772.85,-444.18 766.51,-428.46 761.66,-444.71 772.85,-444.18"/>
</g>
<!-- Node0x7fd82f9047e0 -->
<g id="node36" class="node">
<title>Node0x7fd82f9047e0</title>
<polygon fill="none" stroke="blue" stroke-width="2" points="866.05,-270.54 866.05,-285.46 807.21,-296 723.99,-296 665.14,-285.46 665.14,-270.54 723.99,-260 807.21,-260 866.05,-270.54"/>
<text text-anchor="middle" x="765.6" y="-272.95" font-family="Times,serif" font-size="14.00">когда кладут на стол</text>
</g>
<!-- Node0x7fd82f904800&#45;&gt;Node0x7fd82f9047e0 -->
<g id="edge35" class="edge">
<title>Node0x7fd82f904800&#45;&gt;Node0x7fd82f9047e0</title>
<path fill="none" stroke="darkgrey" stroke-width="1.2" d="M765.6,-388.93C765.6,-369.68 765.6,-338.72 765.6,-314.55"/>
<polygon fill="darkgrey" stroke="darkgrey" stroke-width="1.2" points="771.2,-314.79 765.6,-298.79 760,-314.79 771.2,-314.79"/>
</g>
<!-- Node0x7fd82f904840 -->
<g id="node38" class="node">
<title>Node0x7fd82f904840</title>
<polygon fill="none" stroke="red" stroke-width="2" points="940.6,-296 901.99,-278 940.6,-260 979.2,-278 940.6,-296"/>
<text text-anchor="middle" x="940.6" y="-272.95" font-family="Times,serif" font-size="14.00">scan</text>
</g>
<!-- Node0x7fd82f904800&#45;&gt;Node0x7fd82f904840 -->
<g id="edge37" class="edge">
<title>Node0x7fd82f904800&#45;&gt;Node0x7fd82f904840</title>
<path fill="none" stroke="darkgrey" stroke-width="1.2" d="M778.46,-397.59C806.35,-377.19 872.96,-328.47 911.57,-300.23"/>
<polygon fill="darkgrey" stroke="darkgrey" stroke-width="1.2" points="914.68,-304.89 924.29,-290.93 908.07,-295.85 914.68,-304.89"/>
</g>
<!-- Node0x7fd82f9047c0 -->
<g id="node37" class="node">
<title>Node0x7fd82f9047c0</title>
<ellipse fill="none" stroke="yellow" stroke-width="2" cx="765.6" cy="-148" rx="27" ry="18"/>
<text text-anchor="middle" x="765.6" y="-142.95" font-family="Times,serif" font-size="14.00">10</text>
</g>
<!-- Node0x7fd82f9047e0&#45;&gt;Node0x7fd82f9047c0 -->
<g id="edge36" class="edge">
<title>Node0x7fd82f9047e0&#45;&gt;Node0x7fd82f9047c0</title>
<path fill="none" stroke="darkgrey" stroke-width="1.2" d="M765.6,-259.2C765.6,-239.91 765.6,-208.61 765.6,-184.29"/>
<polygon fill="darkgrey" stroke="darkgrey" stroke-width="1.2" points="771.2,-184.46 765.6,-168.46 760,-184.46 771.2,-184.46"/>
</g>
<!-- Node0x7fd82f904860 -->
<g id="node40" class="node">
<title>Node0x7fd82f904860</title>
<polygon fill="none" stroke="blue" stroke-width="2" points="882.6,-400.54 882.6,-415.46 866.78,-426 844.41,-426 828.6,-415.46 828.6,-400.54 844.41,-390 866.78,-390 882.6,-400.54"/>
<text text-anchor="middle" x="855.6" y="-402.95" font-family="Times,serif" font-size="14.00">i</text>
</g>
<!-- Node0x7fd82f9048a0&#45;&gt;Node0x7fd82f904860 -->
<g id="edge39" class="edge">
<title>Node0x7fd82f9048a0&#45;&gt;Node0x7fd82f904860</title>
<path fill="none" stroke="darkgrey" stroke-width="1.2" d="M915.68,-523.78C905.7,-504.73 886.95,-468.9 873.04,-442.32"/>
<polygon fill="darkgrey" stroke="darkgrey" stroke-width="1.2" points="878.15,-440.02 865.77,-428.44 868.23,-445.21 878.15,-440.02"/>
</g>
<!-- Node0x7fd82f904880 -->
<g id="node41" class="node">
<title>Node0x7fd82f904880</title>
<ellipse fill="none" stroke="yellow" stroke-width="2" cx="945.6" cy="-408" rx="27" ry="18"/>
<text text-anchor="middle" x="945.6" y="-402.95" font-family="Times,serif" font-size="14.00">0</text>
</g>
<!-- Node0x7fd82f9048a0&#45;&gt;Node0x7fd82f904880 -->
<g id="edge40" class="edge">
<title>Node0x7fd82f9048a0&#45;&gt;Node0x7fd82f904880</title>
<path fill="none" stroke="darkgrey" stroke-width="1.2" d="M925.51,-520.79C928.96,-501.6 934.8,-469.09 939.3,-444.06"/>
<polygon fill="darkgrey" stroke="darkgrey" stroke-width="1.2" points="944.77,-445.25 942.09,-428.51 933.75,-443.27 944.77,-445.25"/>
</g>
<!-- Node0x7fd82f904920 -->
<g id="node43" class="node">
<title>Node0x7fd82f904920</title>
<polygon fill="none" stroke="red" stroke-width="2" points="1080.6,-556 1053.6,-538 1080.6,-520 1107.6,-538 1080.6,-556"/>
<text text-anchor="middle" x="1080.6" y="-532.95" font-family="Times,serif" font-size="14.00">&lt;</text>
</g>
<!-- Node0x7fd82f904940&#45;&gt;Node0x7fd82f904920 -->
<g id="edge42" class="edge">
<title>Node0x7fd82f904940&#45;&gt;Node0x7fd82f904920</title>
<path fill="none" stroke="darkgrey" stroke-width="1.2" d="M1080.6,-648.93C1080.6,-629.68 1080.6,-598.72 1080.6,-574.55"/>
<polygon fill="darkgrey" stroke="darkgrey" stroke-width="1.2" points="1086.2,-574.79 1080.6,-558.79 1075,-574.79 1086.2,-574.79"/>
</g>
<!-- Node0x7fd82f904a80 -->
<g id="node46" class="node">
<title>Node0x7fd82f904a80</title>
<polygon fill="none" stroke="red" stroke-width="2" points="1215.6,-556 1149.49,-538 1215.6,-520 1281.7,-538 1215.6,-556"/>
<text text-anchor="middle" x="1215.6" y="-532.95" font-family="Times,serif" font-size="14.00">statement</text>
</g>
<!-- Node0x7fd82f904940&#45;&gt;Node0x7fd82f904a80 -->
<g id="edge45" class="edge">
<title>Node0x7fd82f904940&#45;&gt;Node0x7fd82f904a80</title>
<path fill="none" stroke="darkgrey" stroke-width="1.2" d="M1093.54,-654.73C1115.21,-634.19 1159.27,-592.41 1188.1,-565.07"/>
<polygon fill="darkgrey" stroke="darkgrey" stroke-width="1.2" points="1191.79,-569.29 1199.54,-554.22 1184.08,-561.17 1191.79,-569.29"/>
</g>
<!-- Node0x7fd82f9048e0 -->
<g id="node44" class="node">
<title>Node0x7fd82f9048e0</title>
<polygon fill="none" stroke="blue" stroke-width="2" points="1062.6,-400.54 1062.6,-415.46 1046.78,-426 1024.41,-426 1008.6,-415.46 1008.6,-400.54 1024.41,-390 1046.78,-390 1062.6,-400.54"/>
<text text-anchor="middle" x="1035.6" y="-402.95" font-family="Times,serif" font-size="14.00">i</text>
</g>
<!-- Node0x7fd82f904920&#45;&gt;Node0x7fd82f9048e0 -->
<g id="edge43" class="edge">
<title>Node0x7fd82f904920&#45;&gt;Node0x7fd82f9048e0</title>
<path fill="none" stroke="darkgrey" stroke-width="1.2" d="M1075.43,-522.32C1068.71,-503.2 1056.76,-469.19 1047.69,-443.41"/>
<polygon fill="darkgrey" stroke="darkgrey" stroke-width="1.2" points="1053.04,-441.73 1042.45,-428.49 1042.47,-445.45 1053.04,-441.73"/>
</g>
<!-- Node0x7fd82f904900 -->
<g id="node45" class="node">
<title>Node0x7fd82f904900</title>
<ellipse fill="none" stroke="yellow" stroke-width="2" cx="1125.6" cy="-408" rx="27" ry="18"/>
<text text-anchor="middle" x="1125.6" y="-402.95" font-family="Times,serif" font-size="14.00">11</text>
</g>
<!-- Node0x7fd82f904920&#45;&gt;Node0x7fd82f904900 -->
<g id="edge44" class="edge">
<title>Node0x7fd82f904920&#45;&gt;Node0x7fd82f904900</title>
<path fill="none" stroke="darkgrey" stroke-width="1.2" d="M1085.76,-522.32C1092.52,-503.1 1104.57,-468.82 1113.65,-442.98"/>
<polygon fill="darkgrey" stroke="darkgrey" stroke-width="1.2" points="1118.87,-445.02 1118.89,-428.07 1108.3,-441.31 1118.87,-445.02"/>
</g>
<!-- Node0x7fd82f9049c0 -->
<g id="node47" class="node">
<title>Node0x7fd82f9049c0</title>
<polygon fill="none" stroke="red" stroke-width="2" points="1254.6,-426 1188.49,-408 1254.6,-390 1320.7,-408 1254.6,-426"/>
<text text-anchor="middle" x="1254.6" y="-402.95" font-family="Times,serif" font-size="14.00">statement</text>
</g>
<!-- Node0x7fd82f904a80&#45;&gt;Node0x7fd82f9049c0 -->
<g id="edge46" class="edge">
<title>Node0x7fd82f904a80&#45;&gt;Node0x7fd82f9049c0</title>
<path fill="none" stroke="darkgrey" stroke-width="1.2" d="M1220.62,-520.53C1226.61,-500.85 1236.79,-467.43 1244.45,-442.29"/>
<polygon fill="darkgrey" stroke="darkgrey" stroke-width="1.2" points="1249.76,-444.08 1249.07,-427.15 1239.05,-440.82 1249.76,-444.08"/>
</g>
<!-- Node0x7fd82f904a60 -->
<g id="node51" class="node">
<title>Node0x7fd82f904a60</title>
<polygon fill="none" stroke="red" stroke-width="2" points="1383.6,-426 1356.6,-408 1383.6,-390 1410.6,-408 1383.6,-426"/>
<text text-anchor="middle" x="1383.6" y="-402.95" font-family="Times,serif" font-size="14.00">=</text>
</g>
<!-- Node0x7fd82f904a80&#45;&gt;Node0x7fd82f904a60 -->
<g id="edge50" class="edge">
<title>Node0x7fd82f904a80&#45;&gt;Node0x7fd82f904a60</title>
<path fill="none" stroke="darkgrey" stroke-width="1.2" d="M1232.94,-523.78C1262.46,-501.3 1322.62,-455.46 1357.32,-429.02"/>
<polygon fill="darkgrey" stroke="darkgrey" stroke-width="1.2" points="1360.5,-433.64 1369.83,-419.49 1353.71,-424.73 1360.5,-433.64"/>
</g>
<!-- Node0x7fd82f9049a0 -->
<g id="node48" class="node">
<title>Node0x7fd82f9049a0</title>
<polygon fill="none" stroke="red" stroke-width="2" points="1254.6,-296 1214.55,-278 1254.6,-260 1294.65,-278 1254.6,-296"/>
<text text-anchor="middle" x="1254.6" y="-272.95" font-family="Times,serif" font-size="14.00">print</text>
</g>
<!-- Node0x7fd82f9049c0&#45;&gt;Node0x7fd82f9049a0 -->
<g id="edge47" class="edge">
<title>Node0x7fd82f9049c0&#45;&gt;Node0x7fd82f9049a0</title>
<path fill="none" stroke="darkgrey" stroke-width="1.2" d="M1254.6,-389.2C1254.6,-370.01 1254.6,-338.96 1254.6,-314.7"/>
<polygon fill="darkgrey" stroke="darkgrey" stroke-width="1.2" points="1260.2,-314.88 1254.6,-298.88 1249,-314.88 1260.2,-314.88"/>
</g>
<!-- Node0x7fd82f904980 -->
<g id="node49" class="node">
<title>Node0x7fd82f904980</title>
<polygon fill="none" stroke="blue" stroke-width="2" points="1355.05,-140.54 1355.05,-155.46 1296.21,-166 1212.99,-166 1154.14,-155.46 1154.14,-140.54 1212.99,-130 1296.21,-130 1355.05,-140.54"/>
<text text-anchor="middle" x="1254.6" y="-142.95" font-family="Times,serif" font-size="14.00">когда кладут на стол</text>
</g>
<!-- Node0x7fd82f9049a0&#45;&gt;Node0x7fd82f904980 -->
<g id="edge48" class="edge">
<title>Node0x7fd82f9049a0&#45;&gt;Node0x7fd82f904980</title>
<path fill="none" stroke="darkgrey" stroke-width="1.2" d="M1254.6,-258.93C1254.6,-239.68 1254.6,-208.72 1254.6,-184.55"/>
<polygon fill="darkgrey" stroke="darkgrey" stroke-width="1.2" points="1260.2,-184.79 1254.6,-168.79 1249,-184.79 1260.2,-184.79"/>
</g>
<!-- Node0x7fd82f904960 -->
<g id="node50" class="node">
<title>Node0x7fd82f904960</title>
<polygon fill="none" stroke="blue" stroke-width="2" points="1281.6,-10.54 1281.6,-25.46 1265.78,-36 1243.41,-36 1227.6,-25.46 1227.6,-10.54 1243.41,0 1265.78,0 1281.6,-10.54"/>
<text text-anchor="middle" x="1254.6" y="-12.95" font-family="Times,serif" font-size="14.00">i</text>
</g>
<!-- Node0x7fd82f904980&#45;&gt;Node0x7fd82f904960 -->
<g id="edge49" class="edge">
<title>Node0x7fd82f904980&#45;&gt;Node0x7fd82f904960</title>
<path fill="none" stroke="darkgrey" stroke-width="1.2" d="M1254.6,-129.2C1254.6,-109.91 1254.6,-78.61 1254.6,-54.29"/>
<polygon fill="darkgrey" stroke="darkgrey" stroke-width="1.2" points="1260.2,-54.46 1254.6,-38.46 1249,-54.46 1260.2,-54.46"/>
</g>
<!-- Node0x7fd82f9049e0 -->
<g id="node52" class="node">
<title>Node0x7fd82f9049e0</title>
<polygon fill="none" stroke="blue" stroke-width="2" points="1397.6,-270.54 1397.6,-285.46 1381.78,-296 1359.41,-296 1343.6,-285.46 1343.6,-270.54 1359.41,-260 1381.78,-260 1397.6,-270.54"/>
<text text-anchor="middle" x="1370.6" y="-272.95" font-family="Times,serif" font-size="14.00">i</text>
</g>
<!-- Node0x7fd82f904a60&#45;&gt;Node0x7fd82f9049e0 -->
<g id="edge51" class="edge">
<title>Node0x7fd82f904a60&#45;&gt;Node0x7fd82f9049e0</title>
<path fill="none" stroke="darkgrey" stroke-width="1.2" d="M1381.87,-390C1379.92,-370.81 1376.69,-339.03 1374.19,-314.39"/>
<polygon fill="darkgrey" stroke="darkgrey" stroke-width="1.2" points="1379.79,-314.05 1372.6,-298.7 1368.64,-315.18 1379.79,-314.05"/>
</g>
<!-- Node0x7fd82f904a40 -->
<g id="node53" class="node">
<title>Node0x7fd82f904a40</title>
<polygon fill="none" stroke="red" stroke-width="2" points="1460.6,-296 1433.6,-278 1460.6,-260 1487.6,-278 1460.6,-296"/>
<text text-anchor="middle" x="1460.6" y="-272.95" font-family="Times,serif" font-size="14.00">+</text>
</g>
<!-- Node0x7fd82f904a60&#45;&gt;Node0x7fd82f904a40 -->
<g id="edge52" class="edge">
<title>Node0x7fd82f904a60&#45;&gt;Node0x7fd82f904a40</title>
<path fill="none" stroke="darkgrey" stroke-width="1.2" d="M1391.26,-394.26C1403.48,-373.94 1427.67,-333.73 1443.99,-306.6"/>
<polygon fill="darkgrey" stroke="darkgrey" stroke-width="1.2" points="1448.58,-309.84 1452.03,-293.25 1438.98,-304.07 1448.58,-309.84"/>
</g>
<!-- Node0x7fd82f904a00 -->
<g id="node54" class="node">
<title>Node0x7fd82f904a00</title>
<polygon fill="none" stroke="blue" stroke-width="2" points="1465.6,-140.54 1465.6,-155.46 1449.78,-166 1427.41,-166 1411.6,-155.46 1411.6,-140.54 1427.41,-130 1449.78,-130 1465.6,-140.54"/>
<text text-anchor="middle" x="1438.6" y="-142.95" font-family="Times,serif" font-size="14.00">i</text>
</g>
<!-- Node0x7fd82f904a40&#45;&gt;Node0x7fd82f904a00 -->
<g id="edge53" class="edge">
<title>Node0x7fd82f904a40&#45;&gt;Node0x7fd82f904a00</title>
<path fill="none" stroke="darkgrey" stroke-width="1.2" d="M1457.81,-260.79C1454.51,-241.6 1448.92,-209.09 1444.62,-184.06"/>
<polygon fill="darkgrey" stroke="darkgrey" stroke-width="1.2" points="1450.18,-183.33 1441.95,-168.51 1439.14,-185.23 1450.18,-183.33"/>
</g>
<!-- Node0x7fd82f904a20 -->
<g id="node55" class="node">
<title>Node0x7fd82f904a20</title>
<ellipse fill="none" stroke="yellow" stroke-width="2" cx="1528.6" cy="-148" rx="27" ry="18"/>
<text text-anchor="middle" x="1528.6" y="-142.95" font-family="Times,serif" font-size="14.00">1</text>
</g>
<!-- Node0x7fd82f904a40&#45;&gt;Node0x7fd82f904a20 -->
<g id="edge54" class="edge">
<title>Node0x7fd82f904a40&#45;&gt;Node0x7fd82f904a20</title>
<path fill="none" stroke="darkgrey" stroke-width="1.2" d="M1467.62,-263.78C1477.85,-244.52 1497.2,-208.11 1511.36,-181.44"/>
<polygon fill="darkgrey" stroke="darkgrey" stroke-width="1.2" points="1516.17,-184.34 1518.73,-167.58 1506.27,-179.08 1516.17,-184.34"/>
</g>
<!-- Node0x7fd82f904ae0 -->
<g id="node57" class="node">
<title>Node0x7fd82f904ae0</title>
<polygon fill="none" stroke="red" stroke-width="2" points="1368.6,-686 1334.34,-668 1368.6,-650 1402.86,-668 1368.6,-686"/>
<text text-anchor="middle" x="1368.6" y="-662.95" font-family="Times,serif" font-size="14.00">call</text>
</g>
<!-- Node0x7fd82f904b40&#45;&gt;Node0x7fd82f904ae0 -->
<g id="edge56" class="edge">
<title>Node0x7fd82f904b40&#45;&gt;Node0x7fd82f904ae0</title>
<path fill="none" stroke="darkgrey" stroke-width="1.2" d="M1155.34,-787.17C1194.18,-765.65 1287.2,-714.1 1336.56,-686.75"/>
<polygon fill="darkgrey" stroke="darkgrey" stroke-width="1.2" points="1339.17,-691.71 1350.46,-679.05 1333.75,-681.91 1339.17,-691.71"/>
</g>
<!-- Node0x7fd82f904ac0 -->
<g id="node58" class="node">
<title>Node0x7fd82f904ac0</title>
<polygon fill="none" stroke="blue" stroke-width="2" points="1419.19,-530.54 1419.19,-545.46 1389.55,-556 1347.64,-556 1318,-545.46 1318,-530.54 1347.64,-520 1389.55,-520 1419.19,-530.54"/>
<text text-anchor="middle" x="1368.6" y="-532.95" font-family="Times,serif" font-size="14.00">fucktorial</text>
</g>
<!-- Node0x7fd82f904ae0&#45;&gt;Node0x7fd82f904ac0 -->
<g id="edge57" class="edge">
<title>Node0x7fd82f904ae0&#45;&gt;Node0x7fd82f904ac0</title>
<path fill="none" stroke="darkgrey" stroke-width="1.2" d="M1368.6,-648.93C1368.6,-629.68 1368.6,-598.72 1368.6,-574.55"/>
<polygon fill="darkgrey" stroke="darkgrey" stroke-width="1.2" points="1374.2,-574.79 1368.6,-558.79 1363,-574.79 1374.2,-574.79"/>
</g>
<!-- Node0x7fd82f904b20 -->
<g id="node59" class="node">
<title>Node0x7fd82f904b20</title>
<polygon fill="none" stroke="red" stroke-width="2" points="1523.6,-556 1455.32,-538 1523.6,-520 1591.88,-538 1523.6,-556"/>
<text text-anchor="middle" x="1523.6" y="-532.95" font-family="Times,serif" font-size="14.00">parameter</text>
</g>
<!-- Node0x7fd82f904ae0&#45;&gt;Node0x7fd82f904b20 -->
<g id="edge58" class="edge">
<title>Node0x7fd82f904ae0&#45;&gt;Node0x7fd82f904b20</title>
<path fill="none" stroke="darkgrey" stroke-width="1.2" d="M1381.81,-656.09C1406.43,-635.76 1459.86,-591.63 1493.65,-563.73"/>
<polygon fill="darkgrey" stroke="darkgrey" stroke-width="1.2" points="1497.03,-568.21 1505.8,-553.7 1489.89,-559.57 1497.03,-568.21"/>
</g>
<!-- Node0x7fd82f904b00 -->
<g id="node60" class="node">
<title>Node0x7fd82f904b00</title>
<polygon fill="none" stroke="red" stroke-width="2" points="1523.6,-426 1484.99,-408 1523.6,-390 1562.2,-408 1523.6,-426"/>
<text text-anchor="middle" x="1523.6" y="-402.95" font-family="Times,serif" font-size="14.00">scan</text>
</g>
<!-- Node0x7fd82f904b20&#45;&gt;Node0x7fd82f904b00 -->
<g id="edge59" class="edge">
<title>Node0x7fd82f904b20&#45;&gt;Node0x7fd82f904b00</title>
<path fill="none" stroke="darkgrey" stroke-width="1.2" d="M1523.6,-519.2C1523.6,-500.01 1523.6,-468.96 1523.6,-444.7"/>
<polygon fill="darkgrey" stroke="darkgrey" stroke-width="1.2" points="1529.2,-444.88 1523.6,-428.88 1518,-444.88 1529.2,-444.88"/>
</g>
<!-- Node0x7fd82f904b80 -->
<g id="node62" class="node">
<title>Node0x7fd82f904b80</title>
<ellipse fill="none" stroke="yellow" stroke-width="2" cx="1240.6" cy="-798" rx="27" ry="18"/>
<text text-anchor="middle" x="1240.6" y="-792.95" font-family="Times,serif" font-size="14.00">10</text>
</g>
<!-- Node0x7fd82f904ba0&#45;&gt;Node0x7fd82f904b80 -->
<g id="edge61" class="edge">
<title>Node0x7fd82f904ba0&#45;&gt;Node0x7fd82f904b80</title>
<path fill="none" stroke="darkgrey" stroke-width="1.2" d="M1219.73,-910.27C1223.36,-890.93 1229.42,-858.6 1234.08,-833.76"/>
<polygon fill="darkgrey" stroke="darkgrey" stroke-width="1.2" points="1239.52,-835.1 1236.97,-818.34 1228.52,-833.04 1239.52,-835.1"/>
</g>
</g>
</svg>
