<?xml version="1.0" encoding="UTF-8" standalone="no"?>
<!DOCTYPE svg PUBLIC "-//W3C//DTD SVG 1.1//EN"
 "http://www.w3.org/Graphics/SVG/1.1/DTD/svg11.dtd">
<!-- Generated by graphviz version 2.50.0 (20211204.2007)
 -->
<!-- Pages: 1 -->
<svg width="1342pt" height="1214pt"
 viewBox="0.00 0.00 1341.62 1214.00" xmlns="http://www.w3.org/2000/svg" xmlns:xlink="http://www.w3.org/1999/xlink">
<g id="graph0" class="graph" transform="scale(1 1) rotate(0) translate(4 1210)">
<polygon fill="white" stroke="transparent" points="-4,4 -4,-1210 1337.62,-1210 1337.62,4 -4,4"/>
<!-- Node0x600000bd5440 -->
<g id="node1" class="node">
<title>Node0x600000bd5440</title>
<polygon fill="none" stroke="red" stroke-width="2" points="525.62,-1206 462.27,-1188 525.62,-1170 588.96,-1188 525.62,-1206"/>
<text text-anchor="middle" x="525.62" y="-1184.3" font-family="Times,serif" font-size="14.00">statement</text>
</g>
<!-- Node0x600000bd5120 -->
<g id="node2" class="node">
<title>Node0x600000bd5120</title>
<polygon fill="none" stroke="red" stroke-width="2" points="453.62,-1076 390.27,-1058 453.62,-1040 516.96,-1058 453.62,-1076"/>
<text text-anchor="middle" x="453.62" y="-1054.3" font-family="Times,serif" font-size="14.00">statement</text>
</g>
<!-- Node0x600000bd5440&#45;&gt;Node0x600000bd5120 -->
<g id="edge1" class="edge">
<title>Node0x600000bd5440&#45;&gt;Node0x600000bd5120</title>
<path fill="none" stroke="darkgrey" stroke-width="1.2" d="M517.36,-1172.32C505.86,-1151.88 484.8,-1114.43 470.04,-1088.19"/>
<polygon fill="darkgrey" stroke="darkgrey" stroke-width="1.2" points="474.73,-1085.11 462,-1073.91 464.96,-1090.6 474.73,-1085.11"/>
</g>
<!-- Node0x600000bd54a0 -->
<g id="node27" class="node">
<title>Node0x600000bd54a0</title>
<polygon fill="none" stroke="red" stroke-width="2" points="750.62,-1076 704.7,-1058 750.62,-1040 796.53,-1058 750.62,-1076"/>
<text text-anchor="middle" x="750.62" y="-1054.3" font-family="Times,serif" font-size="14.00">define</text>
</g>
<!-- Node0x600000bd5440&#45;&gt;Node0x600000bd54a0 -->
<g id="edge26" class="edge">
<title>Node0x600000bd5440&#45;&gt;Node0x600000bd54a0</title>
<path fill="none" stroke="darkgrey" stroke-width="1.2" d="M545.58,-1175.64C584.71,-1153.38 671.73,-1103.88 718.84,-1077.07"/>
<polygon fill="darkgrey" stroke="darkgrey" stroke-width="1.2" points="721.76,-1081.86 732.9,-1069.08 716.22,-1072.12 721.76,-1081.86"/>
</g>
<!-- Node0x600000bd51c0 -->
<g id="node3" class="node">
<title>Node0x600000bd51c0</title>
<polygon fill="none" stroke="red" stroke-width="2" points="391.62,-946 345.7,-928 391.62,-910 437.53,-928 391.62,-946"/>
<text text-anchor="middle" x="391.62" y="-924.3" font-family="Times,serif" font-size="14.00">define</text>
</g>
<!-- Node0x600000bd5120&#45;&gt;Node0x600000bd51c0 -->
<g id="edge2" class="edge">
<title>Node0x600000bd5120&#45;&gt;Node0x600000bd51c0</title>
<path fill="none" stroke="darkgrey" stroke-width="1.2" d="M446.26,-1041.81C436.27,-1021.19 418.22,-983.93 405.61,-957.89"/>
<polygon fill="darkgrey" stroke="darkgrey" stroke-width="1.2" points="410.6,-955.34 398.58,-943.38 400.52,-960.22 410.6,-955.34"/>
</g>
<!-- Node0x600000bd5160 -->
<g id="node4" class="node">
<title>Node0x600000bd5160</title>
<polygon fill="none" stroke="red" stroke-width="2" points="188.62,-816 131.64,-798 188.62,-780 245.59,-798 188.62,-816"/>
<text text-anchor="middle" x="188.62" y="-794.3" font-family="Times,serif" font-size="14.00">function</text>
</g>
<!-- Node0x600000bd51c0&#45;&gt;Node0x600000bd5160 -->
<g id="edge3" class="edge">
<title>Node0x600000bd51c0&#45;&gt;Node0x600000bd5160</title>
<path fill="none" stroke="darkgrey" stroke-width="1.2" d="M374.66,-916.31C340.74,-894.92 264.08,-846.59 220.49,-819.1"/>
<polygon fill="darkgrey" stroke="darkgrey" stroke-width="1.2" points="223.35,-814.28 206.83,-810.49 217.38,-823.76 223.35,-814.28"/>
</g>
<!-- Node0x600000bd5300 -->
<g id="node8" class="node">
<title>Node0x600000bd5300</title>
<polygon fill="none" stroke="red" stroke-width="2" points="391.62,-816 328.27,-798 391.62,-780 454.96,-798 391.62,-816"/>
<text text-anchor="middle" x="391.62" y="-794.3" font-family="Times,serif" font-size="14.00">statement</text>
</g>
<!-- Node0x600000bd51c0&#45;&gt;Node0x600000bd5300 -->
<g id="edge7" class="edge">
<title>Node0x600000bd51c0&#45;&gt;Node0x600000bd5300</title>
<path fill="none" stroke="darkgrey" stroke-width="1.2" d="M391.62,-909.74C391.62,-890.08 391.62,-857.49 391.62,-832.74"/>
<polygon fill="darkgrey" stroke="darkgrey" stroke-width="1.2" points="397.22,-832.4 391.62,-816.4 386.02,-832.4 397.22,-832.4"/>
</g>
<!-- Node0x600000bd5140 -->
<g id="node5" class="node">
<title>Node0x600000bd5140</title>
<polygon fill="none" stroke="blue" stroke-width="2" points="87.35,-660.54 87.35,-675.46 61.73,-686 25.5,-686 -0.12,-675.46 -0.12,-660.54 25.5,-650 61.73,-650 87.35,-660.54"/>
<text text-anchor="middle" x="43.62" y="-664.3" font-family="Times,serif" font-size="14.00">factorial</text>
</g>
<!-- Node0x600000bd5160&#45;&gt;Node0x600000bd5140 -->
<g id="edge4" class="edge">
<title>Node0x600000bd5160&#45;&gt;Node0x600000bd5140</title>
<path fill="none" stroke="darkgrey" stroke-width="1.2" d="M174.18,-784.26C151.12,-763.9 105.42,-723.56 74.68,-696.42"/>
<polygon fill="darkgrey" stroke="darkgrey" stroke-width="1.2" points="78.24,-692.09 62.54,-685.7 70.82,-700.49 78.24,-692.09"/>
</g>
<!-- Node0x600000bd5180 -->
<g id="node6" class="node">
<title>Node0x600000bd5180</title>
<polygon fill="none" stroke="red" stroke-width="2" points="188.62,-686 123.6,-668 188.62,-650 253.64,-668 188.62,-686"/>
<text text-anchor="middle" x="188.62" y="-664.3" font-family="Times,serif" font-size="14.00">parameter</text>
</g>
<!-- Node0x600000bd5160&#45;&gt;Node0x600000bd5180 -->
<g id="edge5" class="edge">
<title>Node0x600000bd5160&#45;&gt;Node0x600000bd5180</title>
<path fill="none" stroke="darkgrey" stroke-width="1.2" d="M188.62,-779.74C188.62,-760.08 188.62,-727.49 188.62,-702.74"/>
<polygon fill="darkgrey" stroke="darkgrey" stroke-width="1.2" points="194.22,-702.4 188.62,-686.4 183.02,-702.4 194.22,-702.4"/>
</g>
<!-- Node0x600000bd51a0 -->
<g id="node7" class="node">
<title>Node0x600000bd51a0</title>
<polygon fill="none" stroke="blue" stroke-width="2" points="215.62,-530.54 215.62,-545.46 199.8,-556 177.43,-556 161.62,-545.46 161.62,-530.54 177.43,-520 199.8,-520 215.62,-530.54"/>
<text text-anchor="middle" x="188.62" y="-534.3" font-family="Times,serif" font-size="14.00">x</text>
</g>
<!-- Node0x600000bd5180&#45;&gt;Node0x600000bd51a0 -->
<g id="edge6" class="edge">
<title>Node0x600000bd5180&#45;&gt;Node0x600000bd51a0</title>
<path fill="none" stroke="darkgrey" stroke-width="1.2" d="M188.62,-649.74C188.62,-630.08 188.62,-597.49 188.62,-572.74"/>
<polygon fill="darkgrey" stroke="darkgrey" stroke-width="1.2" points="194.22,-572.4 188.62,-556.4 183.02,-572.4 194.22,-572.4"/>
</g>
<!-- Node0x600000bd51e0 -->
<g id="node9" class="node">
<title>Node0x600000bd51e0</title>
<polygon fill="none" stroke="red" stroke-width="2" points="353.62,-686 290.27,-668 353.62,-650 416.96,-668 353.62,-686"/>
<text text-anchor="middle" x="353.62" y="-664.3" font-family="Times,serif" font-size="14.00">statement</text>
</g>
<!-- Node0x600000bd5300&#45;&gt;Node0x600000bd51e0 -->
<g id="edge8" class="edge">
<title>Node0x600000bd5300&#45;&gt;Node0x600000bd51e0</title>
<path fill="none" stroke="darkgrey" stroke-width="1.2" d="M386.96,-781.3C381,-761.25 370.56,-726.06 362.94,-700.41"/>
<polygon fill="darkgrey" stroke="darkgrey" stroke-width="1.2" points="368.24,-698.57 358.31,-684.82 357.5,-701.76 368.24,-698.57"/>
</g>
<!-- Node0x600000bd5320 -->
<g id="node18" class="node">
<title>Node0x600000bd5320</title>
<polygon fill="none" stroke="red" stroke-width="2" points="497.62,-686 452.54,-668 497.62,-650 542.69,-668 497.62,-686"/>
<text text-anchor="middle" x="497.62" y="-664.3" font-family="Times,serif" font-size="14.00">return</text>
</g>
<!-- Node0x600000bd5300&#45;&gt;Node0x600000bd5320 -->
<g id="edge17" class="edge">
<title>Node0x600000bd5300&#45;&gt;Node0x600000bd5320</title>
<path fill="none" stroke="darkgrey" stroke-width="1.2" d="M403.37,-782.81C420.99,-761.53 454.55,-721.01 476.5,-694.5"/>
<polygon fill="darkgrey" stroke="darkgrey" stroke-width="1.2" points="480.88,-697.99 486.77,-682.1 472.25,-690.85 480.88,-697.99"/>
</g>
<!-- Node0x600000bd5260 -->
<g id="node10" class="node">
<title>Node0x600000bd5260</title>
<polygon fill="none" stroke="red" stroke-width="2" points="279.62,-556 252.62,-538 279.62,-520 306.62,-538 279.62,-556"/>
<text text-anchor="middle" x="279.62" y="-534.3" font-family="Times,serif" font-size="14.00">if</text>
</g>
<!-- Node0x600000bd51e0&#45;&gt;Node0x600000bd5260 -->
<g id="edge9" class="edge">
<title>Node0x600000bd51e0&#45;&gt;Node0x600000bd5260</title>
<path fill="none" stroke="darkgrey" stroke-width="1.2" d="M345.13,-652.32C332.94,-631.23 310.26,-592.01 295.05,-565.7"/>
<polygon fill="darkgrey" stroke="darkgrey" stroke-width="1.2" points="299.76,-562.65 286.9,-551.61 290.06,-568.26 299.76,-562.65"/>
</g>
<!-- Node0x600000bd5220 -->
<g id="node11" class="node">
<title>Node0x600000bd5220</title>
<polygon fill="none" stroke="red" stroke-width="2" points="153.62,-426 123.45,-408 153.62,-390 183.78,-408 153.62,-426"/>
<text text-anchor="middle" x="153.62" y="-404.3" font-family="Times,serif" font-size="14.00">&lt;=</text>
</g>
<!-- Node0x600000bd5260&#45;&gt;Node0x600000bd5220 -->
<g id="edge10" class="edge">
<title>Node0x600000bd5260&#45;&gt;Node0x600000bd5220</title>
<path fill="none" stroke="darkgrey" stroke-width="1.2" d="M269.31,-526.53C249.01,-505.91 203.47,-459.64 175.96,-431.7"/>
<polygon fill="darkgrey" stroke="darkgrey" stroke-width="1.2" points="179.64,-427.46 164.43,-419.98 171.66,-435.31 179.64,-427.46"/>
</g>
<!-- Node0x600000bd52e0 -->
<g id="node14" class="node">
<title>Node0x600000bd52e0</title>
<polygon fill="none" stroke="red" stroke-width="2" points="279.62,-426 222.64,-408 279.62,-390 336.59,-408 279.62,-426"/>
<text text-anchor="middle" x="279.62" y="-404.3" font-family="Times,serif" font-size="14.00">decision</text>
</g>
<!-- Node0x600000bd5260&#45;&gt;Node0x600000bd52e0 -->
<g id="edge13" class="edge">
<title>Node0x600000bd5260&#45;&gt;Node0x600000bd52e0</title>
<path fill="none" stroke="darkgrey" stroke-width="1.2" d="M279.62,-519.74C279.62,-500.08 279.62,-467.49 279.62,-442.74"/>
<polygon fill="darkgrey" stroke="darkgrey" stroke-width="1.2" points="285.22,-442.4 279.62,-426.4 274.02,-442.4 285.22,-442.4"/>
</g>
<!-- Node0x600000bd5200 -->
<g id="node12" class="node">
<title>Node0x600000bd5200</title>
<polygon fill="none" stroke="blue" stroke-width="2" points="90.62,-270.54 90.62,-285.46 74.8,-296 52.43,-296 36.62,-285.46 36.62,-270.54 52.43,-260 74.8,-260 90.62,-270.54"/>
<text text-anchor="middle" x="63.62" y="-274.3" font-family="Times,serif" font-size="14.00">x</text>
</g>
<!-- Node0x600000bd5220&#45;&gt;Node0x600000bd5200 -->
<g id="edge11" class="edge">
<title>Node0x600000bd5220&#45;&gt;Node0x600000bd5200</title>
<path fill="none" stroke="darkgrey" stroke-width="1.2" d="M144.99,-394.73C131.26,-375.21 104.06,-336.52 84.89,-309.26"/>
<polygon fill="darkgrey" stroke="darkgrey" stroke-width="1.2" points="89.25,-305.72 75.46,-295.85 80.09,-312.16 89.25,-305.72"/>
</g>
<!-- Node0x600000bd5240 -->
<g id="node13" class="node">
<title>Node0x600000bd5240</title>
<ellipse fill="none" stroke="yellow" stroke-width="2" cx="153.62" cy="-278" rx="27" ry="18"/>
<text text-anchor="middle" x="153.62" y="-274.3" font-family="Times,serif" font-size="14.00">0</text>
</g>
<!-- Node0x600000bd5220&#45;&gt;Node0x600000bd5240 -->
<g id="edge12" class="edge">
<title>Node0x600000bd5220&#45;&gt;Node0x600000bd5240</title>
<path fill="none" stroke="darkgrey" stroke-width="1.2" d="M153.62,-389.74C153.62,-370.08 153.62,-337.49 153.62,-312.74"/>
<polygon fill="darkgrey" stroke="darkgrey" stroke-width="1.2" points="159.22,-312.4 153.62,-296.4 148.02,-312.4 159.22,-312.4"/>
</g>
<!-- Node0x600000bd5280 -->
<g id="node15" class="node">
<title>Node0x600000bd5280</title>
<polygon fill="none" stroke="red" stroke-width="2" points="279.62,-296 216.27,-278 279.62,-260 342.96,-278 279.62,-296"/>
<text text-anchor="middle" x="279.62" y="-274.3" font-family="Times,serif" font-size="14.00">statement</text>
</g>
<!-- Node0x600000bd52e0&#45;&gt;Node0x600000bd5280 -->
<g id="edge14" class="edge">
<title>Node0x600000bd52e0&#45;&gt;Node0x600000bd5280</title>
<path fill="none" stroke="darkgrey" stroke-width="1.2" d="M279.62,-389.74C279.62,-370.08 279.62,-337.49 279.62,-312.74"/>
<polygon fill="darkgrey" stroke="darkgrey" stroke-width="1.2" points="285.22,-312.4 279.62,-296.4 274.02,-312.4 285.22,-312.4"/>
</g>
<!-- Node0x600000bd52a0 -->
<g id="node16" class="node">
<title>Node0x600000bd52a0</title>
<polygon fill="none" stroke="red" stroke-width="2" points="279.62,-166 234.54,-148 279.62,-130 324.69,-148 279.62,-166"/>
<text text-anchor="middle" x="279.62" y="-144.3" font-family="Times,serif" font-size="14.00">return</text>
</g>
<!-- Node0x600000bd5280&#45;&gt;Node0x600000bd52a0 -->
<g id="edge15" class="edge">
<title>Node0x600000bd5280&#45;&gt;Node0x600000bd52a0</title>
<path fill="none" stroke="darkgrey" stroke-width="1.2" d="M279.62,-259.74C279.62,-240.08 279.62,-207.49 279.62,-182.74"/>
<polygon fill="darkgrey" stroke="darkgrey" stroke-width="1.2" points="285.22,-182.4 279.62,-166.4 274.02,-182.4 285.22,-182.4"/>
</g>
<!-- Node0x600000bd52c0 -->
<g id="node17" class="node">
<title>Node0x600000bd52c0</title>
<ellipse fill="none" stroke="yellow" stroke-width="2" cx="279.62" cy="-18" rx="27" ry="18"/>
<text text-anchor="middle" x="279.62" y="-14.3" font-family="Times,serif" font-size="14.00">1</text>
</g>
<!-- Node0x600000bd52a0&#45;&gt;Node0x600000bd52c0 -->
<g id="edge16" class="edge">
<title>Node0x600000bd52a0&#45;&gt;Node0x600000bd52c0</title>
<path fill="none" stroke="darkgrey" stroke-width="1.2" d="M279.62,-129.74C279.62,-110.08 279.62,-77.49 279.62,-52.74"/>
<polygon fill="darkgrey" stroke="darkgrey" stroke-width="1.2" points="285.22,-52.4 279.62,-36.4 274.02,-52.4 285.22,-52.4"/>
</g>
<!-- Node0x600000bd5360 -->
<g id="node19" class="node">
<title>Node0x600000bd5360</title>
<polygon fill="none" stroke="red" stroke-width="2" points="497.62,-556 470.62,-538 497.62,-520 524.62,-538 497.62,-556"/>
<text text-anchor="middle" x="497.62" y="-534.3" font-family="Times,serif" font-size="14.00">*</text>
</g>
<!-- Node0x600000bd5320&#45;&gt;Node0x600000bd5360 -->
<g id="edge18" class="edge">
<title>Node0x600000bd5320&#45;&gt;Node0x600000bd5360</title>
<path fill="none" stroke="darkgrey" stroke-width="1.2" d="M497.62,-649.74C497.62,-630.08 497.62,-597.49 497.62,-572.74"/>
<polygon fill="darkgrey" stroke="darkgrey" stroke-width="1.2" points="503.22,-572.4 497.62,-556.4 492.02,-572.4 503.22,-572.4"/>
</g>
<!-- Node0x600000bd5340 -->
<g id="node20" class="node">
<title>Node0x600000bd5340</title>
<polygon fill="none" stroke="blue" stroke-width="2" points="463.62,-400.54 463.62,-415.46 447.8,-426 425.43,-426 409.62,-415.46 409.62,-400.54 425.43,-390 447.8,-390 463.62,-400.54"/>
<text text-anchor="middle" x="436.62" y="-404.3" font-family="Times,serif" font-size="14.00">x</text>
</g>
<!-- Node0x600000bd5360&#45;&gt;Node0x600000bd5340 -->
<g id="edge19" class="edge">
<title>Node0x600000bd5360&#45;&gt;Node0x600000bd5340</title>
<path fill="none" stroke="darkgrey" stroke-width="1.2" d="M491.32,-523.78C482.1,-504.44 464.65,-467.82 451.93,-441.13"/>
<polygon fill="darkgrey" stroke="darkgrey" stroke-width="1.2" points="456.85,-438.43 444.91,-426.4 446.74,-443.25 456.85,-438.43"/>
</g>
<!-- Node0x600000bd53a0 -->
<g id="node21" class="node">
<title>Node0x600000bd53a0</title>
<polygon fill="none" stroke="red" stroke-width="2" points="532.62,-426 499.44,-408 532.62,-390 565.8,-408 532.62,-426"/>
<text text-anchor="middle" x="532.62" y="-404.3" font-family="Times,serif" font-size="14.00">call</text>
</g>
<!-- Node0x600000bd5360&#45;&gt;Node0x600000bd53a0 -->
<g id="edge20" class="edge">
<title>Node0x600000bd5360&#45;&gt;Node0x600000bd53a0</title>
<path fill="none" stroke="darkgrey" stroke-width="1.2" d="M501.63,-522.32C507.11,-502.27 517.08,-465.83 524.23,-439.68"/>
<polygon fill="darkgrey" stroke="darkgrey" stroke-width="1.2" points="529.72,-440.82 528.54,-423.91 518.92,-437.86 529.72,-440.82"/>
</g>
<!-- Node0x600000bd5380 -->
<g id="node22" class="node">
<title>Node0x600000bd5380</title>
<polygon fill="none" stroke="blue" stroke-width="2" points="466.35,-270.54 466.35,-285.46 440.73,-296 404.5,-296 378.88,-285.46 378.88,-270.54 404.5,-260 440.73,-260 466.35,-270.54"/>
<text text-anchor="middle" x="422.62" y="-274.3" font-family="Times,serif" font-size="14.00">factorial</text>
</g>
<!-- Node0x600000bd53a0&#45;&gt;Node0x600000bd5380 -->
<g id="edge21" class="edge">
<title>Node0x600000bd53a0&#45;&gt;Node0x600000bd5380</title>
<path fill="none" stroke="darkgrey" stroke-width="1.2" d="M522.47,-395.19C505.74,-375.72 471.88,-336.32 448.25,-308.83"/>
<polygon fill="darkgrey" stroke="darkgrey" stroke-width="1.2" points="452.27,-304.91 437.59,-296.43 443.78,-312.21 452.27,-304.91"/>
</g>
<!-- Node0x600000bd53c0 -->
<g id="node23" class="node">
<title>Node0x600000bd53c0</title>
<polygon fill="none" stroke="red" stroke-width="2" points="567.62,-296 502.6,-278 567.62,-260 632.64,-278 567.62,-296"/>
<text text-anchor="middle" x="567.62" y="-274.3" font-family="Times,serif" font-size="14.00">parameter</text>
</g>
<!-- Node0x600000bd53a0&#45;&gt;Node0x600000bd53c0 -->
<g id="edge22" class="edge">
<title>Node0x600000bd53a0&#45;&gt;Node0x600000bd53c0</title>
<path fill="none" stroke="darkgrey" stroke-width="1.2" d="M536.7,-392.07C542.12,-372.25 551.82,-336.76 558.92,-310.81"/>
<polygon fill="darkgrey" stroke="darkgrey" stroke-width="1.2" points="564.41,-311.95 563.23,-295.04 553.61,-309 564.41,-311.95"/>
</g>
<!-- Node0x600000bd5400 -->
<g id="node24" class="node">
<title>Node0x600000bd5400</title>
<polygon fill="none" stroke="red" stroke-width="2" points="550.62,-166 523.62,-148 550.62,-130 577.62,-148 550.62,-166"/>
<text text-anchor="middle" x="550.62" y="-144.3" font-family="Times,serif" font-size="14.00">&#45;</text>
</g>
<!-- Node0x600000bd53c0&#45;&gt;Node0x600000bd5400 -->
<g id="edge23" class="edge">
<title>Node0x600000bd53c0&#45;&gt;Node0x600000bd5400</title>
<path fill="none" stroke="darkgrey" stroke-width="1.2" d="M565.43,-260.53C562.77,-240.55 558.24,-206.4 554.89,-181.14"/>
<polygon fill="darkgrey" stroke="darkgrey" stroke-width="1.2" points="560.4,-180.13 552.74,-165.01 549.3,-181.6 560.4,-180.13"/>
</g>
<!-- Node0x600000bd53e0 -->
<g id="node25" class="node">
<title>Node0x600000bd53e0</title>
<polygon fill="none" stroke="blue" stroke-width="2" points="532.62,-10.54 532.62,-25.46 516.8,-36 494.43,-36 478.62,-25.46 478.62,-10.54 494.43,0 516.8,0 532.62,-10.54"/>
<text text-anchor="middle" x="505.62" y="-14.3" font-family="Times,serif" font-size="14.00">x</text>
</g>
<!-- Node0x600000bd5400&#45;&gt;Node0x600000bd53e0 -->
<g id="edge24" class="edge">
<title>Node0x600000bd5400&#45;&gt;Node0x600000bd53e0</title>
<path fill="none" stroke="darkgrey" stroke-width="1.2" d="M545.63,-132.81C538.76,-113.28 526.21,-77.56 516.98,-51.33"/>
<polygon fill="darkgrey" stroke="darkgrey" stroke-width="1.2" points="522.22,-49.33 511.63,-36.09 511.65,-53.04 522.22,-49.33"/>
</g>
<!-- Node0x600000bd5420 -->
<g id="node26" class="node">
<title>Node0x600000bd5420</title>
<ellipse fill="none" stroke="yellow" stroke-width="2" cx="595.62" cy="-18" rx="27" ry="18"/>
<text text-anchor="middle" x="595.62" y="-14.3" font-family="Times,serif" font-size="14.00">1</text>
</g>
<!-- Node0x600000bd5400&#45;&gt;Node0x600000bd5420 -->
<g id="edge25" class="edge">
<title>Node0x600000bd5400&#45;&gt;Node0x600000bd5420</title>
<path fill="none" stroke="darkgrey" stroke-width="1.2" d="M555.6,-132.81C562.51,-113.18 575.17,-77.17 584.4,-50.9"/>
<polygon fill="darkgrey" stroke="darkgrey" stroke-width="1.2" points="589.73,-52.63 589.75,-35.67 579.16,-48.91 589.73,-52.63"/>
</g>
<!-- Node0x600000bd5480 -->
<g id="node28" class="node">
<title>Node0x600000bd5480</title>
<polygon fill="none" stroke="red" stroke-width="2" points="750.62,-946 693.64,-928 750.62,-910 807.59,-928 750.62,-946"/>
<text text-anchor="middle" x="750.62" y="-924.3" font-family="Times,serif" font-size="14.00">function</text>
</g>
<!-- Node0x600000bd54a0&#45;&gt;Node0x600000bd5480 -->
<g id="edge27" class="edge">
<title>Node0x600000bd54a0&#45;&gt;Node0x600000bd5480</title>
<path fill="none" stroke="darkgrey" stroke-width="1.2" d="M750.62,-1039.74C750.62,-1020.08 750.62,-987.49 750.62,-962.74"/>
<polygon fill="darkgrey" stroke="darkgrey" stroke-width="1.2" points="756.22,-962.4 750.62,-946.4 745.02,-962.4 756.22,-962.4"/>
</g>
<!-- Node0x600000bd57c0 -->
<g id="node30" class="node">
<title>Node0x600000bd57c0</title>
<polygon fill="none" stroke="red" stroke-width="2" points="982.62,-946 919.27,-928 982.62,-910 1045.96,-928 982.62,-946"/>
<text text-anchor="middle" x="982.62" y="-924.3" font-family="Times,serif" font-size="14.00">statement</text>
</g>
<!-- Node0x600000bd54a0&#45;&gt;Node0x600000bd57c0 -->
<g id="edge29" class="edge">
<title>Node0x600000bd54a0&#45;&gt;Node0x600000bd57c0</title>
<path fill="none" stroke="darkgrey" stroke-width="1.2" d="M768.82,-1046.96C807.45,-1025.65 898.15,-975.6 948.11,-948.04"/>
<polygon fill="darkgrey" stroke="darkgrey" stroke-width="1.2" points="950.9,-952.9 962.2,-940.26 945.49,-943.09 950.9,-952.9"/>
</g>
<!-- Node0x600000bd5460 -->
<g id="node29" class="node">
<title>Node0x600000bd5460</title>
<polygon fill="none" stroke="blue" stroke-width="2" points="781.52,-790.54 781.52,-805.46 763.42,-816 737.81,-816 719.71,-805.46 719.71,-790.54 737.81,-780 763.42,-780 781.52,-790.54"/>
<text text-anchor="middle" x="750.62" y="-794.3" font-family="Times,serif" font-size="14.00">main</text>
</g>
<!-- Node0x600000bd5480&#45;&gt;Node0x600000bd5460 -->
<g id="edge28" class="edge">
<title>Node0x600000bd5480&#45;&gt;Node0x600000bd5460</title>
<path fill="none" stroke="darkgrey" stroke-width="1.2" d="M750.62,-909.74C750.62,-890.08 750.62,-857.49 750.62,-832.74"/>
<polygon fill="darkgrey" stroke="darkgrey" stroke-width="1.2" points="756.22,-832.4 750.62,-816.4 745.02,-832.4 756.22,-832.4"/>
</g>
<!-- Node0x600000bd5700 -->
<g id="node31" class="node">
<title>Node0x600000bd5700</title>
<polygon fill="none" stroke="red" stroke-width="2" points="982.62,-816 919.27,-798 982.62,-780 1045.96,-798 982.62,-816"/>
<text text-anchor="middle" x="982.62" y="-794.3" font-family="Times,serif" font-size="14.00">statement</text>
</g>
<!-- Node0x600000bd57c0&#45;&gt;Node0x600000bd5700 -->
<g id="edge30" class="edge">
<title>Node0x600000bd57c0&#45;&gt;Node0x600000bd5700</title>
<path fill="none" stroke="darkgrey" stroke-width="1.2" d="M982.62,-909.74C982.62,-890.08 982.62,-857.49 982.62,-832.74"/>
<polygon fill="darkgrey" stroke="darkgrey" stroke-width="1.2" points="988.22,-832.4 982.62,-816.4 977.02,-832.4 988.22,-832.4"/>
</g>
<!-- Node0x600000bd57e0 -->
<g id="node55" class="node">
<title>Node0x600000bd57e0</title>
<polygon fill="none" stroke="red" stroke-width="2" points="1162.62,-816 1117.54,-798 1162.62,-780 1207.69,-798 1162.62,-816"/>
<text text-anchor="middle" x="1162.62" y="-794.3" font-family="Times,serif" font-size="14.00">return</text>
</g>
<!-- Node0x600000bd57c0&#45;&gt;Node0x600000bd57e0 -->
<g id="edge54" class="edge">
<title>Node0x600000bd57c0&#45;&gt;Node0x600000bd57e0</title>
<path fill="none" stroke="darkgrey" stroke-width="1.2" d="M999.88,-914.73C1030.86,-892.69 1096.21,-846.23 1133.99,-819.36"/>
<polygon fill="darkgrey" stroke="darkgrey" stroke-width="1.2" points="1137.42,-823.79 1147.21,-809.95 1130.93,-814.66 1137.42,-823.79"/>
</g>
<!-- Node0x600000bd5600 -->
<g id="node32" class="node">
<title>Node0x600000bd5600</title>
<polygon fill="none" stroke="red" stroke-width="2" points="964.62,-686 901.27,-668 964.62,-650 1027.96,-668 964.62,-686"/>
<text text-anchor="middle" x="964.62" y="-664.3" font-family="Times,serif" font-size="14.00">statement</text>
</g>
<!-- Node0x600000bd5700&#45;&gt;Node0x600000bd5600 -->
<g id="edge31" class="edge">
<title>Node0x600000bd5700&#45;&gt;Node0x600000bd5600</title>
<path fill="none" stroke="darkgrey" stroke-width="1.2" d="M980.3,-780.53C977.51,-760.65 972.74,-726.77 969.2,-701.56"/>
<polygon fill="darkgrey" stroke="darkgrey" stroke-width="1.2" points="974.7,-700.47 966.92,-685.41 963.61,-702.03 974.7,-700.47"/>
</g>
<!-- Node0x600000bd5740 -->
<g id="node50" class="node">
<title>Node0x600000bd5740</title>
<polygon fill="none" stroke="red" stroke-width="2" points="1090.62,-686 1063.62,-668 1090.62,-650 1117.62,-668 1090.62,-686"/>
<text text-anchor="middle" x="1090.62" y="-664.3" font-family="Times,serif" font-size="14.00">=</text>
</g>
<!-- Node0x600000bd5700&#45;&gt;Node0x600000bd5740 -->
<g id="edge49" class="edge">
<title>Node0x600000bd5700&#45;&gt;Node0x600000bd5740</title>
<path fill="none" stroke="darkgrey" stroke-width="1.2" d="M994.59,-782.81C1013.02,-760.96 1048.56,-718.84 1070.85,-692.42"/>
<polygon fill="darkgrey" stroke="darkgrey" stroke-width="1.2" points="1075.37,-695.75 1081.41,-679.91 1066.81,-688.53 1075.37,-695.75"/>
</g>
<!-- Node0x600000bd5540 -->
<g id="node33" class="node">
<title>Node0x600000bd5540</title>
<polygon fill="none" stroke="red" stroke-width="2" points="856.62,-556 793.27,-538 856.62,-520 919.96,-538 856.62,-556"/>
<text text-anchor="middle" x="856.62" y="-534.3" font-family="Times,serif" font-size="14.00">statement</text>
</g>
<!-- Node0x600000bd5600&#45;&gt;Node0x600000bd5540 -->
<g id="edge32" class="edge">
<title>Node0x600000bd5600&#45;&gt;Node0x600000bd5540</title>
<path fill="none" stroke="darkgrey" stroke-width="1.2" d="M952.65,-652.81C934.87,-631.75 901.21,-591.85 878.84,-565.34"/>
<polygon fill="darkgrey" stroke="darkgrey" stroke-width="1.2" points="882.91,-561.48 868.31,-552.86 874.35,-568.7 882.91,-561.48"/>
</g>
<!-- Node0x600000bd5640 -->
<g id="node43" class="node">
<title>Node0x600000bd5640</title>
<polygon fill="none" stroke="red" stroke-width="2" points="982.62,-556 955.62,-538 982.62,-520 1009.62,-538 982.62,-556"/>
<text text-anchor="middle" x="982.62" y="-534.3" font-family="Times,serif" font-size="14.00">if</text>
</g>
<!-- Node0x600000bd5600&#45;&gt;Node0x600000bd5640 -->
<g id="edge42" class="edge">
<title>Node0x600000bd5600&#45;&gt;Node0x600000bd5640</title>
<path fill="none" stroke="darkgrey" stroke-width="1.2" d="M966.93,-650.53C969.76,-630.44 974.6,-596.03 978.15,-570.73"/>
<polygon fill="darkgrey" stroke="darkgrey" stroke-width="1.2" points="983.74,-571.23 980.42,-554.61 972.65,-569.67 983.74,-571.23"/>
</g>
<!-- Node0x600000bd54c0 -->
<g id="node34" class="node">
<title>Node0x600000bd54c0</title>
<polygon fill="none" stroke="red" stroke-width="2" points="724.62,-426 661.27,-408 724.62,-390 787.96,-408 724.62,-426"/>
<text text-anchor="middle" x="724.62" y="-404.3" font-family="Times,serif" font-size="14.00">statement</text>
</g>
<!-- Node0x600000bd5540&#45;&gt;Node0x600000bd54c0 -->
<g id="edge33" class="edge">
<title>Node0x600000bd5540&#45;&gt;Node0x600000bd54c0</title>
<path fill="none" stroke="darkgrey" stroke-width="1.2" d="M842.99,-523.78C821.05,-502.51 777.58,-460.36 749.86,-433.48"/>
<polygon fill="darkgrey" stroke="darkgrey" stroke-width="1.2" points="753.75,-429.45 738.37,-422.34 745.96,-437.49 753.75,-429.45"/>
</g>
<!-- Node0x600000bd5560 -->
<g id="node38" class="node">
<title>Node0x600000bd5560</title>
<polygon fill="none" stroke="red" stroke-width="2" points="862.62,-426 823.91,-408 862.62,-390 901.33,-408 862.62,-426"/>
<text text-anchor="middle" x="862.62" y="-404.3" font-family="Times,serif" font-size="14.00">print</text>
</g>
<!-- Node0x600000bd5540&#45;&gt;Node0x600000bd5560 -->
<g id="edge37" class="edge">
<title>Node0x600000bd5540&#45;&gt;Node0x600000bd5560</title>
<path fill="none" stroke="darkgrey" stroke-width="1.2" d="M857.41,-520C858.35,-500.1 859.91,-466.67 861.08,-441.69"/>
<polygon fill="darkgrey" stroke="darkgrey" stroke-width="1.2" points="866.68,-441.91 861.84,-425.66 855.49,-441.38 866.68,-441.91"/>
</g>
<!-- Node0x600000bd5500 -->
<g id="node35" class="node">
<title>Node0x600000bd5500</title>
<polygon fill="none" stroke="red" stroke-width="2" points="724.62,-296 697.62,-278 724.62,-260 751.62,-278 724.62,-296"/>
<text text-anchor="middle" x="724.62" y="-274.3" font-family="Times,serif" font-size="14.00">=</text>
</g>
<!-- Node0x600000bd54c0&#45;&gt;Node0x600000bd5500 -->
<g id="edge34" class="edge">
<title>Node0x600000bd54c0&#45;&gt;Node0x600000bd5500</title>
<path fill="none" stroke="darkgrey" stroke-width="1.2" d="M724.62,-389.74C724.62,-370.08 724.62,-337.49 724.62,-312.74"/>
<polygon fill="darkgrey" stroke="darkgrey" stroke-width="1.2" points="730.22,-312.4 724.62,-296.4 719.02,-312.4 730.22,-312.4"/>
</g>
<!-- Node0x600000bd54e0 -->
<g id="node36" class="node">
<title>Node0x600000bd54e0</title>
<polygon fill="none" stroke="blue" stroke-width="2" points="667.62,-140.54 667.62,-155.46 651.8,-166 629.43,-166 613.62,-155.46 613.62,-140.54 629.43,-130 651.8,-130 667.62,-140.54"/>
<text text-anchor="middle" x="640.62" y="-144.3" font-family="Times,serif" font-size="14.00">x</text>
</g>
<!-- Node0x600000bd5500&#45;&gt;Node0x600000bd54e0 -->
<g id="edge35" class="edge">
<title>Node0x600000bd5500&#45;&gt;Node0x600000bd54e0</title>
<path fill="none" stroke="darkgrey" stroke-width="1.2" d="M716.56,-264.73C703.82,-245.31 678.64,-206.94 660.77,-179.7"/>
<polygon fill="darkgrey" stroke="darkgrey" stroke-width="1.2" points="665.42,-176.58 651.95,-166.28 656.05,-182.73 665.42,-176.58"/>
</g>
<!-- Node0x600000bd5520 -->
<g id="node37" class="node">
<title>Node0x600000bd5520</title>
<ellipse fill="none" stroke="yellow" stroke-width="2" cx="736.62" cy="-148" rx="33.29" ry="18"/>
<text text-anchor="middle" x="736.62" y="-144.3" font-family="Times,serif" font-size="14.00">1e+08</text>
</g>
<!-- Node0x600000bd5500&#45;&gt;Node0x600000bd5520 -->
<g id="edge36" class="edge">
<title>Node0x600000bd5500&#45;&gt;Node0x600000bd5520</title>
<path fill="none" stroke="darkgrey" stroke-width="1.2" d="M726.14,-260.79C727.97,-241.21 731.11,-207.76 733.47,-182.54"/>
<polygon fill="darkgrey" stroke="darkgrey" stroke-width="1.2" points="739.08,-182.76 734.99,-166.3 727.93,-181.71 739.08,-182.76"/>
</g>
<!-- Node0x600000bd55a0 -->
<g id="node39" class="node">
<title>Node0x600000bd55a0</title>
<polygon fill="none" stroke="red" stroke-width="2" points="862.62,-296 829.44,-278 862.62,-260 895.8,-278 862.62,-296"/>
<text text-anchor="middle" x="862.62" y="-274.3" font-family="Times,serif" font-size="14.00">call</text>
</g>
<!-- Node0x600000bd5560&#45;&gt;Node0x600000bd55a0 -->
<g id="edge38" class="edge">
<title>Node0x600000bd5560&#45;&gt;Node0x600000bd55a0</title>
<path fill="none" stroke="darkgrey" stroke-width="1.2" d="M862.62,-389.74C862.62,-370.08 862.62,-337.49 862.62,-312.74"/>
<polygon fill="darkgrey" stroke="darkgrey" stroke-width="1.2" points="868.22,-312.4 862.62,-296.4 857.02,-312.4 868.22,-312.4"/>
</g>
<!-- Node0x600000bd5580 -->
<g id="node40" class="node">
<title>Node0x600000bd5580</title>
<polygon fill="none" stroke="blue" stroke-width="2" points="893.35,-140.54 893.35,-155.46 867.73,-166 831.5,-166 805.88,-155.46 805.88,-140.54 831.5,-130 867.73,-130 893.35,-140.54"/>
<text text-anchor="middle" x="849.62" y="-144.3" font-family="Times,serif" font-size="14.00">factorial</text>
</g>
<!-- Node0x600000bd55a0&#45;&gt;Node0x600000bd5580 -->
<g id="edge39" class="edge">
<title>Node0x600000bd55a0&#45;&gt;Node0x600000bd5580</title>
<path fill="none" stroke="darkgrey" stroke-width="1.2" d="M860.97,-260.79C858.98,-241.21 855.58,-207.76 853.02,-182.54"/>
<polygon fill="darkgrey" stroke="darkgrey" stroke-width="1.2" points="858.56,-181.66 851.37,-166.3 847.42,-182.79 858.56,-181.66"/>
</g>
<!-- Node0x600000bd55c0 -->
<g id="node41" class="node">
<title>Node0x600000bd55c0</title>
<polygon fill="none" stroke="red" stroke-width="2" points="994.62,-166 929.6,-148 994.62,-130 1059.64,-148 994.62,-166"/>
<text text-anchor="middle" x="994.62" y="-144.3" font-family="Times,serif" font-size="14.00">parameter</text>
</g>
<!-- Node0x600000bd55a0&#45;&gt;Node0x600000bd55c0 -->
<g id="edge40" class="edge">
<title>Node0x600000bd55a0&#45;&gt;Node0x600000bd55c0</title>
<path fill="none" stroke="darkgrey" stroke-width="1.2" d="M873.87,-266.09C894.83,-245.76 940.34,-201.63 969.11,-173.73"/>
<polygon fill="darkgrey" stroke="darkgrey" stroke-width="1.2" points="973.06,-177.7 980.65,-162.54 965.27,-169.66 973.06,-177.7"/>
</g>
<!-- Node0x600000bd55e0 -->
<g id="node42" class="node">
<title>Node0x600000bd55e0</title>
<ellipse fill="none" stroke="yellow" stroke-width="2" cx="994.62" cy="-18" rx="27" ry="18"/>
<text text-anchor="middle" x="994.62" y="-14.3" font-family="Times,serif" font-size="14.00">20</text>
</g>
<!-- Node0x600000bd55c0&#45;&gt;Node0x600000bd55e0 -->
<g id="edge41" class="edge">
<title>Node0x600000bd55c0&#45;&gt;Node0x600000bd55e0</title>
<path fill="none" stroke="darkgrey" stroke-width="1.2" d="M994.62,-129.74C994.62,-110.08 994.62,-77.49 994.62,-52.74"/>
<polygon fill="darkgrey" stroke="darkgrey" stroke-width="1.2" points="1000.22,-52.4 994.62,-36.4 989.02,-52.4 1000.22,-52.4"/>
</g>
<!-- Node0x600000bd5620 -->
<g id="node44" class="node">
<title>Node0x600000bd5620</title>
<ellipse fill="none" stroke="yellow" stroke-width="2" cx="976.62" cy="-408" rx="27" ry="18"/>
<text text-anchor="middle" x="976.62" y="-404.3" font-family="Times,serif" font-size="14.00">1</text>
</g>
<!-- Node0x600000bd5640&#45;&gt;Node0x600000bd5620 -->
<g id="edge43" class="edge">
<title>Node0x600000bd5640&#45;&gt;Node0x600000bd5620</title>
<path fill="none" stroke="darkgrey" stroke-width="1.2" d="M981.83,-520.27C980.91,-500.54 979.35,-467.28 978.18,-442.25"/>
<polygon fill="darkgrey" stroke="darkgrey" stroke-width="1.2" points="983.76,-441.87 977.42,-426.15 972.58,-442.39 983.76,-441.87"/>
</g>
<!-- Node0x600000bd56e0 -->
<g id="node45" class="node">
<title>Node0x600000bd56e0</title>
<polygon fill="none" stroke="red" stroke-width="2" points="1096.62,-426 1039.64,-408 1096.62,-390 1153.59,-408 1096.62,-426"/>
<text text-anchor="middle" x="1096.62" y="-404.3" font-family="Times,serif" font-size="14.00">decision</text>
</g>
<!-- Node0x600000bd5640&#45;&gt;Node0x600000bd56e0 -->
<g id="edge44" class="edge">
<title>Node0x600000bd5640&#45;&gt;Node0x600000bd56e0</title>
<path fill="none" stroke="darkgrey" stroke-width="1.2" d="M992.34,-526.09C1010.2,-506.03 1048.69,-462.82 1073.58,-434.87"/>
<polygon fill="darkgrey" stroke="darkgrey" stroke-width="1.2" points="1078.1,-438.22 1084.55,-422.54 1069.73,-430.77 1078.1,-438.22"/>
</g>
<!-- Node0x600000bd5660 -->
<g id="node46" class="node">
<title>Node0x600000bd5660</title>
<polygon fill="none" stroke="red" stroke-width="2" points="1103.62,-296 1040.27,-278 1103.62,-260 1166.96,-278 1103.62,-296"/>
<text text-anchor="middle" x="1103.62" y="-274.3" font-family="Times,serif" font-size="14.00">statement</text>
</g>
<!-- Node0x600000bd56e0&#45;&gt;Node0x600000bd5660 -->
<g id="edge45" class="edge">
<title>Node0x600000bd56e0&#45;&gt;Node0x600000bd5660</title>
<path fill="none" stroke="darkgrey" stroke-width="1.2" d="M1097.53,-390.27C1098.61,-370.54 1100.43,-337.28 1101.8,-312.25"/>
<polygon fill="darkgrey" stroke="darkgrey" stroke-width="1.2" points="1107.4,-312.43 1102.68,-296.15 1096.21,-311.82 1107.4,-312.43"/>
</g>
<!-- Node0x600000bd56a0 -->
<g id="node47" class="node">
<title>Node0x600000bd56a0</title>
<polygon fill="none" stroke="red" stroke-width="2" points="1122.62,-166 1095.62,-148 1122.62,-130 1149.62,-148 1122.62,-166"/>
<text text-anchor="middle" x="1122.62" y="-144.3" font-family="Times,serif" font-size="14.00">=</text>
</g>
<!-- Node0x600000bd5660&#45;&gt;Node0x600000bd56a0 -->
<g id="edge46" class="edge">
<title>Node0x600000bd5660&#45;&gt;Node0x600000bd56a0</title>
<path fill="none" stroke="darkgrey" stroke-width="1.2" d="M1106.06,-260.53C1109.04,-240.44 1114.15,-206.03 1117.91,-180.73"/>
<polygon fill="darkgrey" stroke="darkgrey" stroke-width="1.2" points="1123.49,-181.26 1120.3,-164.61 1112.41,-179.61 1123.49,-181.26"/>
</g>
<!-- Node0x600000bd5680 -->
<g id="node48" class="node">
<title>Node0x600000bd5680</title>
<polygon fill="none" stroke="blue" stroke-width="2" points="1130.62,-10.54 1130.62,-25.46 1114.8,-36 1092.43,-36 1076.62,-25.46 1076.62,-10.54 1092.43,0 1114.8,0 1130.62,-10.54"/>
<text text-anchor="middle" x="1103.62" y="-14.3" font-family="Times,serif" font-size="14.00">b</text>
</g>
<!-- Node0x600000bd56a0&#45;&gt;Node0x600000bd5680 -->
<g id="edge47" class="edge">
<title>Node0x600000bd56a0&#45;&gt;Node0x600000bd5680</title>
<path fill="none" stroke="darkgrey" stroke-width="1.2" d="M1120.29,-131.3C1117.37,-111.67 1112.3,-77.53 1108.52,-52.03"/>
<polygon fill="darkgrey" stroke="darkgrey" stroke-width="1.2" points="1114.04,-51.05 1106.15,-36.05 1102.96,-52.7 1114.04,-51.05"/>
</g>
<!-- Node0x600000bd56c0 -->
<g id="node49" class="node">
<title>Node0x600000bd56c0</title>
<ellipse fill="none" stroke="yellow" stroke-width="2" cx="1193.62" cy="-18" rx="27" ry="18"/>
<text text-anchor="middle" x="1193.62" y="-14.3" font-family="Times,serif" font-size="14.00">10</text>
</g>
<!-- Node0x600000bd56a0&#45;&gt;Node0x600000bd56c0 -->
<g id="edge48" class="edge">
<title>Node0x600000bd56a0&#45;&gt;Node0x600000bd56c0</title>
<path fill="none" stroke="darkgrey" stroke-width="1.2" d="M1129.68,-134.26C1140.58,-114.61 1161.8,-76.36 1176.8,-49.32"/>
<polygon fill="darkgrey" stroke="darkgrey" stroke-width="1.2" points="1181.72,-51.99 1184.59,-35.28 1171.93,-46.56 1181.72,-51.99"/>
</g>
<!-- Node0x600000bd5720 -->
<g id="node51" class="node">
<title>Node0x600000bd5720</title>
<polygon fill="none" stroke="blue" stroke-width="2" points="1117.62,-530.54 1117.62,-545.46 1101.8,-556 1079.43,-556 1063.62,-545.46 1063.62,-530.54 1079.43,-520 1101.8,-520 1117.62,-530.54"/>
<text text-anchor="middle" x="1090.62" y="-534.3" font-family="Times,serif" font-size="14.00">x</text>
</g>
<!-- Node0x600000bd5740&#45;&gt;Node0x600000bd5720 -->
<g id="edge50" class="edge">
<title>Node0x600000bd5740&#45;&gt;Node0x600000bd5720</title>
<path fill="none" stroke="darkgrey" stroke-width="1.2" d="M1090.62,-649.74C1090.62,-630.08 1090.62,-597.49 1090.62,-572.74"/>
<polygon fill="darkgrey" stroke="darkgrey" stroke-width="1.2" points="1096.22,-572.4 1090.62,-556.4 1085.02,-572.4 1096.22,-572.4"/>
</g>
<!-- Node0x600000bd5780 -->
<g id="node52" class="node">
<title>Node0x600000bd5780</title>
<polygon fill="none" stroke="red" stroke-width="2" points="1216.62,-556 1189.62,-538 1216.62,-520 1243.62,-538 1216.62,-556"/>
<text text-anchor="middle" x="1216.62" y="-534.3" font-family="Times,serif" font-size="14.00">&#45;</text>
</g>
<!-- Node0x600000bd5740&#45;&gt;Node0x600000bd5780 -->
<g id="edge51" class="edge">
<title>Node0x600000bd5740&#45;&gt;Node0x600000bd5780</title>
<path fill="none" stroke="darkgrey" stroke-width="1.2" d="M1100.93,-656.53C1121.32,-635.8 1167.22,-589.18 1194.68,-561.29"/>
<polygon fill="darkgrey" stroke="darkgrey" stroke-width="1.2" points="1198.93,-564.95 1206.16,-549.62 1190.95,-557.09 1198.93,-564.95"/>
</g>
<!-- Node0x600000bd5760 -->
<g id="node53" class="node">
<title>Node0x600000bd5760</title>
<ellipse fill="none" stroke="yellow" stroke-width="2" cx="1216.62" cy="-408" rx="27" ry="18"/>
<text text-anchor="middle" x="1216.62" y="-404.3" font-family="Times,serif" font-size="14.00">4</text>
</g>
<!-- Node0x600000bd5780&#45;&gt;Node0x600000bd5760 -->
<g id="edge52" class="edge">
<title>Node0x600000bd5780&#45;&gt;Node0x600000bd5760</title>
<path fill="none" stroke="darkgrey" stroke-width="1.2" d="M1216.62,-519.74C1216.62,-500.08 1216.62,-467.49 1216.62,-442.74"/>
<polygon fill="darkgrey" stroke="darkgrey" stroke-width="1.2" points="1222.22,-442.4 1216.62,-426.4 1211.02,-442.4 1222.22,-442.4"/>
</g>
<!-- Node0x600000bd57a0 -->
<g id="node54" class="node">
<title>Node0x600000bd57a0</title>
<ellipse fill="none" stroke="yellow" stroke-width="2" cx="1306.62" cy="-408" rx="27" ry="18"/>
<text text-anchor="middle" x="1306.62" y="-404.3" font-family="Times,serif" font-size="14.00">2</text>
</g>
<!-- Node0x600000bd5780&#45;&gt;Node0x600000bd57a0 -->
<g id="edge53" class="edge">
<title>Node0x600000bd5780&#45;&gt;Node0x600000bd57a0</title>
<path fill="none" stroke="darkgrey" stroke-width="1.2" d="M1224.92,-525.19C1238.72,-505.57 1266.75,-465.7 1286.1,-438.18"/>
<polygon fill="darkgrey" stroke="darkgrey" stroke-width="1.2" points="1290.94,-441.04 1295.56,-424.73 1281.77,-434.59 1290.94,-441.04"/>
</g>
<!-- Node0x600000bd5800 -->
<g id="node56" class="node">
<title>Node0x600000bd5800</title>
<ellipse fill="none" stroke="yellow" stroke-width="2" cx="1180.62" cy="-668" rx="27" ry="18"/>
<text text-anchor="middle" x="1180.62" y="-664.3" font-family="Times,serif" font-size="14.00">1</text>
</g>
<!-- Node0x600000bd57e0&#45;&gt;Node0x600000bd5800 -->
<g id="edge55" class="edge">
<title>Node0x600000bd57e0&#45;&gt;Node0x600000bd5800</title>
<path fill="none" stroke="darkgrey" stroke-width="1.2" d="M1164.9,-780.79C1167.66,-761.11 1172.4,-727.43 1175.95,-702.17"/>
<polygon fill="darkgrey" stroke="darkgrey" stroke-width="1.2" points="1181.5,-702.93 1178.18,-686.3 1170.41,-701.37 1181.5,-702.93"/>
</g>
</g>
</svg>
